<svg xmlns="http://www.w3.org/2000/svg" viewBox="0 0 99.14 35.46"><defs><style>.cls-1{fill:#722968;}.cls-2{fill:gray;}.cls-3{fill:none;stroke:#722968;stroke-linecap:round;stroke-linejoin:round;stroke-width:0.96px;}</style></defs><g id="Layer_2" data-name="Layer 2"><g id="Layer_1-2" data-name="Layer 1"><path class="cls-1" d="M81.51,29.71a6.49,6.49,0,0,0-1,2.52,1.76,1.76,0,0,0,2.3-1.46C83,29.56,82.06,29,81.06,29c-1.58-.05-3,.94-2.34,2.22,0,.23-.48.65-.81.53a1.3,1.3,0,0,1-.69-1.17c0-1.61,1.92-2.46,3.86-2.44,1.71,0,3.42.93,3.07,2.78-.28,1.61-1.77,2.68-3.9,2.13-.25.93-.47,1.82-.62,2.19s-1.33.26-1.29-.14c.49-1.19,1-4.87,2.19-5.57C80.88,29.31,81.55,29.52,81.51,29.71Z"/><path class="cls-1" d="M88.44,30.09a4,4,0,0,1-2.74,2.77c-.23,1-.09,1.72.6,1.76s1.38-.53,1.88-1.52c0-.12.44.13.39.23-.6,1.2-1.33,2.25-2.81,2.09s-1.57-1.65-1.15-3.59a5.75,5.75,0,0,1,1.87-3.47C87.56,27.7,88.86,28.46,88.44,30.09Zm-2,.17c-.16.47-.43,1.19-.59,1.79a3.53,3.53,0,0,0,1.27-1.61c.3-.72.39-1.38.12-1.38S86.73,29.57,86.46,30.26Z"/><path class="cls-1" d="M92.72,31.17c-.27,1-1.09,3.44-.6,3.43s1-.67,1.33-1.49c.07-.14.46.11.4.22-.39.76-1.2,2.1-2.29,2.08-.56,0-.83-.61-.66-1.28a2.21,2.21,0,0,1-2,1.3c-1,0-1.12-.73-1-1.46.19-1,.55-2,.8-2.94.15-.27,1.26-.18,1.3.13-.15.58-.4,1.43-.58,2.21s-.31,1.2,0,1.2,1-.68,1.27-1.48.43-1.4.61-2.08C91.56,30.79,92.57,30.84,92.72,31.17Z"/><path class="cls-1" d="M93.78,34.37a.63.63,0,0,1,.77-.35.54.54,0,0,0,.52.6.57.57,0,0,0,.4-.19.42.42,0,0,1,.17-.74,18.51,18.51,0,0,0-.45-2.34,10.63,10.63,0,0,0-1.5,2.3c-.07.14-.48-.07-.4-.22A9.38,9.38,0,0,1,95,30.85c.81-.8,2.06-.45,1.43.42.24,1.27.7,2,.48,3,.46,0,1-.33,1.37-1.18,0-.12.45.13.39.23a2.13,2.13,0,0,1-2,1.48,2,2,0,0,1-1.6.65A1.27,1.27,0,0,1,93.78,34.37Z"/><path class="cls-2" d="M91.67,25c-.61-.38-1.24-.74-1.87-1.09s-1.21-.67-1.81-1l-5.51-3.18-2.25-1.3v8a1.71,1.71,0,0,1-3.14,0V25.06c0-2.5.15-5,0-7.5a5.25,5.25,0,0,1,0-2.2,1.7,1.7,0,0,1,.35-.52,2.12,2.12,0,0,1,2-.34,3.32,3.32,0,0,1,.62.24l0,0c.16.08.32.18.48.28s.34.22.52.32L83,16.5c1.14.68,2.29,1.35,3.48,2l.42.22c1.89,1.09,3.76,2.21,5.66,3.27.92.52,2,.93,2.91,1.45a5.16,5.16,0,0,1,1.9,1.41,1.39,1.39,0,0,1,.26.8,2,2,0,0,1-1,1.7c-.8.39-1.44-.24-2.1-.63l-1.28-.75C92.72,25.63,92.19,25.34,91.67,25Z"/><path class="cls-2" d="M5.9,25.94l-1.29.75c-.65.38-1.3,1-2.1.62a1.93,1.93,0,0,1-1-1.7,1.34,1.34,0,0,1,.26-.8A5.16,5.16,0,0,1,3.64,23.4c.95-.52,2-.93,2.91-1.45,1.9-1.06,3.77-2.18,5.66-3.27l.43-.22c1.18-.61,2.33-1.28,3.47-2L18,15.36l.51-.32c.16-.1.32-.2.48-.28h0a2.78,2.78,0,0,1,.62-.25,2.12,2.12,0,0,1,2,.35,1.38,1.38,0,0,1,.34.51,5.25,5.25,0,0,1,.05,2.2c-.15,2.5,0,5,0,7.5v1.36a1.71,1.71,0,0,1-3.14,0v-8l-2.25,1.3-5.51,3.18c-.6.35-1.2.68-1.81,1S8.08,24.64,7.47,25,6.42,25.63,5.9,25.94Z"/><path class="cls-2" d="M72.73,16a2.12,2.12,0,0,0-2-1.55,2.15,2.15,0,0,0-.68.11h0l0,0-.66.38L59.2,20.75h0l-.3.18-.3-.18h0L48.5,14.94l-.66-.38,0,0h0a2.15,2.15,0,0,0-.68-.11A2.13,2.13,0,0,0,45.06,16c0,.05,0,.09,0,.14V26.23a1.71,1.71,0,0,0,3,.08V18.22l.23.14h0l9.84,5.55h.06a1.09,1.09,0,0,0,.25.1,1,1,0,0,0,.29.07v0H59v0a.89.89,0,0,0,.28-.07,1.09,1.09,0,0,0,.25-.1h.06l9.85-5.55h0l.22-.14v8.09a1.73,1.73,0,0,0,1.51.89,1.7,1.7,0,0,0,1.53-1V16.12A.74.74,0,0,0,72.73,16Z"/><path class="cls-2" d="M40.57,24.76c-.63-1.09-2-.8-3-.75A12.66,12.66,0,0,1,32,23.5a3.55,3.55,0,0,1-2.27-2.73c-.27-1.7,0-3.44-.21-5.13A1.74,1.74,0,0,0,27,14.54a1.46,1.46,0,0,0-.65.73v3.44a10.41,10.41,0,0,0,.51,4.15A7.25,7.25,0,0,0,30,26.31c1.87,1.07,4,1,6.08,1h2.64a1.7,1.7,0,0,0,.71,0h.06A2,2,0,0,0,40,27.1,1.72,1.72,0,0,0,40.57,24.76Z"/><path class="cls-1" d="M0,20.92a67.78,67.78,0,0,1,10.44-9A67.74,67.74,0,0,1,22.57,5.35,70.62,70.62,0,0,1,49.57,0a71.47,71.47,0,0,1,27,5.35,67.11,67.11,0,0,1,12.14,6.57,63.92,63.92,0,0,1,10.42,9,64,64,0,0,0-10.68-8.61A67.3,67.3,0,0,0,76.3,6,72.21,72.21,0,0,0,49.57,1,71.41,71.41,0,0,0,22.84,6,68.24,68.24,0,0,0,10.7,12.33,67.38,67.38,0,0,0,0,20.92Z"/><line class="cls-3" x1="17.49" y1="34.91" x2="79.28" y2="34.91"/></g></g></svg>