<svg xmlns="http://www.w3.org/2000/svg" viewBox="0 0 52.46 40"><defs><style>.cls-1{fill:#1f6a80;}</style></defs><g id="Layer_2" data-name="Layer 2"><g id="Layer_1-2" data-name="Layer 1"><path class="cls-1" d="M11.81,4.8a.48.48,0,0,1-.47-.48V.72a.47.47,0,0,1,.47-.48h3.6a.47.47,0,0,1,.48.48.48.48,0,0,1-.48.48H12.29V4.32A.48.48,0,0,1,11.81,4.8Z"/><path class="cls-1" d="M15.34,29.68H11.75a.48.48,0,0,1-.48-.48V25.6a.48.48,0,0,1,.48-.48.49.49,0,0,1,.48.48v3.12h3.11a.47.47,0,0,1,.48.48A.48.48,0,0,1,15.34,29.68Z"/><path class="cls-1" d="M40.41,4.56a.49.49,0,0,1-.48-.48V1H36.82a.48.48,0,0,1-.48-.48A.47.47,0,0,1,36.82,0h3.59a.47.47,0,0,1,.48.48v3.6A.48.48,0,0,1,40.41,4.56Z"/><path class="cls-1" d="M40.53,29.56H36.94a.48.48,0,0,1-.48-.48.47.47,0,0,1,.48-.48h3.11V25.48a.49.49,0,0,1,.48-.48.48.48,0,0,1,.48.48v3.6A.48.48,0,0,1,40.53,29.56Z"/><path class="cls-1" d="M33.48,7.94H29.32V3.75h4.16Zm-3.56-.6h3v-3h-3Z"/><path class="cls-1" d="M37,7.94H32.88V3.75H37Zm-3.56-.6h3v-3h-3Z"/><path class="cls-1" d="M19.23,11.53H15.07V7.34h4.16Zm-3.56-.6h3v-3h-3Z"/><path class="cls-1" d="M22.79,11.53H18.63V7.34h4.16Zm-3.56-.6h3v-3h-3Z"/><path class="cls-1" d="M26.35,11.53H22.19V7.34h4.16Zm-3.56-.6h3v-3h-3Z"/><path class="cls-1" d="M33.48,11.53H29.32V7.34h4.16Zm-3.56-.6h3v-3h-3Z"/><path class="cls-1" d="M37,11.53H32.88V7.34H37Zm-3.56-.6h3v-3h-3Z"/><path class="cls-1" d="M19.23,15.12H15.07V10.93h4.16Zm-3.56-.6h3v-3h-3Z"/><path class="cls-1" d="M26.35,15.12H22.19V10.93h4.16Zm-3.56-.6h3v-3h-3Z"/><path class="cls-1" d="M33.48,18.72H29.32v-4.2h4.16Zm-3.56-.6h3v-3h-3Z"/><path class="cls-1" d="M37,18.72H32.88v-4.2H37Zm-3.56-.6h3v-3h-3Z"/><path class="cls-1" d="M22.79,22.31H18.63V18.12h4.16Zm-3.56-.6h3v-3h-3Z"/><path class="cls-1" d="M33.48,22.31H29.32V18.12h4.16Zm-3.56-.6h3v-3h-3Z"/><path class="cls-1" d="M37,22.31H32.88V18.12H37Zm-3.56-.6h3v-3h-3Z"/><path class="cls-1" d="M19.23,25.9H15.07V21.71h4.16Zm-3.56-.6h3v-3h-3Z"/><path class="cls-1" d="M22.79,25.9H18.63V21.71h4.16Zm-3.56-.6h3v-3h-3Z"/><path class="cls-1" d="M26.35,25.9H22.19V21.71h4.16Zm-3.56-.6h3v-3h-3Z"/><path class="cls-1" d="M29.92,25.9H25.76V21.71h4.16Zm-3.57-.6h3v-3h-3Z"/><path class="cls-1" d="M33.48,25.9H29.32V21.71h4.16Zm-3.56-.6h3v-3h-3Z"/><path class="cls-1" d="M37,25.9H32.88V21.71H37Zm-3.56-.6h3v-3h-3Z"/><path class="cls-1" d="M5.61,35H0v4.85H5.61a1,1,0,0,0,.6-.19,1,1,0,0,0,.46-.87v-.67a1,1,0,0,0-.17-.54l-.09-.15.09-.16a1,1,0,0,0,.17-.54v-.67a1,1,0,0,0-.19-.6A1.05,1.05,0,0,0,5.61,35ZM6,38.78a.38.38,0,0,1-.36.38h-5V37.76H5.61a.38.38,0,0,1,.38.33v.69Zm0-2.09a.38.38,0,0,1-.33.38h-5V35.66H5.6A.38.38,0,0,1,6,36v.67Z"/><path class="cls-1" d="M13.6,35H9a1.13,1.13,0,0,0-.6.18A1.08,1.08,0,0,0,8,36v2.74a1.08,1.08,0,0,0,.18.6,1.06,1.06,0,0,0,.87.46H13.6a1.09,1.09,0,0,0,.61-.19,1.07,1.07,0,0,0,.45-.87V36a1.11,1.11,0,0,0-.18-.6A1.06,1.06,0,0,0,13.6,35ZM14,38.78a.37.37,0,0,1-.35.38H9.05a.4.4,0,0,1-.39-.36V36.05A.38.38,0,0,1,9,35.66H13.6A.37.37,0,0,1,14,36v2.77Z"/><path class="cls-1" d="M21.59,35H16v4.86h5.62a1.05,1.05,0,0,0,1.06-1.06V36a1.11,1.11,0,0,0-.18-.6A1.07,1.07,0,0,0,21.59,35Zm.39,3.8a.38.38,0,0,1-.36.38h-5V35.66h4.94A.39.39,0,0,1,22,36v2.78Z"/><polygon class="cls-1" points="23.96 39.84 30.63 39.84 30.63 39.17 24.63 39.17 24.63 37.76 29.37 37.76 29.37 37.08 24.63 37.08 24.63 35.66 30.63 35.66 30.63 34.99 23.96 34.99 23.96 39.84"/><path class="cls-1" d="M37.56,35H33a1,1,0,0,0-.71.28,1.08,1.08,0,0,0-.33.78v2.73a1,1,0,0,0,1,1.06h4.57a1.09,1.09,0,0,0,.61-.19,1.07,1.07,0,0,0,.45-.87V37.07H34.49v.69h3.45v1a.37.37,0,0,1-.35.38H33a.37.37,0,0,1-.38-.35V36.05a.37.37,0,0,1,.35-.38h4.59a.4.4,0,0,1,.24.09h.78a1.1,1.1,0,0,0-.15-.31A1.07,1.07,0,0,0,37.56,35Z"/><path class="cls-1" d="M44,35H42.51l-2.39,4.85H41l.47-.93.09-.16h3.31c.19,0,.19,0,.54.72l.19.37h.85l-1.76-3.56C44.37,35.66,44.15,35.23,44,35Zm.48,3.09H41.85l1.23-2.52h.38l.09.17c.08.19.4.83.93,1.91l0,.07Z"/><polygon class="cls-1" points="50.74 35.29 49.47 35.29 49.47 37.01 47.75 37.01 47.75 38.28 49.47 38.28 49.47 40 50.74 40 50.74 38.28 52.46 38.28 52.46 37.01 50.74 37.01 50.74 35.29"/></g></g></svg>