<svg xmlns="http://www.w3.org/2000/svg" viewBox="0 0 159.82 35.1"><defs><style>.cls-1{fill:#fff;}.cls-2{fill:none;stroke:#fff;stroke-miterlimit:10;stroke-width:0.21px;}</style></defs><g id="Layer_2" data-name="Layer 2"><g id="Layer_1-2" data-name="Layer 1"><path class="cls-1" d="M6.63,1.78h5.73c4.72,0,9.42.54,8.92,6.55s-5.13,9-10.31,9H8l-2.3,8.33H0Zm2.65,11h1.54c2.28,0,4.43-.89,4.66-3.73.2-2.29-1.18-2.76-2.72-2.76h-1.7Z"/><path class="cls-1" d="M23.54,0h5.61l-7,25.62H16.57Z"/><path class="cls-1" d="M40.55,21c-.41,1.54-.78,3-1.07,4.65H34.33l.67-2.9h-.06C33.17,24.7,31.4,26,28.47,26c-3.24,0-4.77-2.66-4.48-6.15a18.68,18.68,0,0,1,.75-3.76l2.17-8.3h5.74l-2.24,8.34a16.47,16.47,0,0,0-.6,2.7,1.75,1.75,0,0,0,2,2.05c2.34,0,3.91-2.26,4.54-4.89l2.26-8.2h5.55Z"/><path class="cls-1" d="M41.51,21.25a10,10,0,0,0,3.64.68c.89,0,3.12-.1,3.24-1.57.22-2.53-6.52-1.23-6-7.11.35-4.16,4.87-5.84,8.6-5.84a16,16,0,0,1,5.25,1.06l-2.14,3.76a9.5,9.5,0,0,0-3.73-.72c-1.23,0-2.62.31-2.72,1.54-.17,2,6.78,1.84,6.41,6.32S50.11,26,45.94,26a22.6,22.6,0,0,1-6.67-.92Z"/><path class="cls-1" d="M59.12,0h5.61l-7,25.62H52.16Z"/><path class="cls-1" d="M67.63,26c-5.95,0-8-3.66-7.67-8.13.52-6.25,4.95-10.49,11.24-10.49,5.46,0,8.06,3.49,7.68,8C78.26,22.78,73.64,26,67.63,26Zm2.93-14.31c-2.68,0-4.62,3.21-4.86,6-.2,2.39.81,4,2.69,4,2.59,0,4.43-2.39,4.76-6.42C73.31,13.46,72.72,11.72,70.56,11.72Z"/><path class="cls-1" d="M98.64,7.82h5.62l-4.83,17.8H94.87L97.77,11Zm2-7.41h5.62l-1.25,4.51H99.44Z"/><path class="cls-1" d="M101.6,21.25a10,10,0,0,0,3.64.68c.89,0,3.12-.1,3.24-1.57.22-2.53-6.52-1.23-6-7.11.35-4.16,4.87-5.84,8.6-5.84a16,16,0,0,1,5.25,1.06l-2.13,3.76a9.59,9.59,0,0,0-3.74-.72c-1.23,0-2.61.31-2.72,1.54-.16,2,6.79,1.84,6.41,6.32S110.2,26,106,26a22.68,22.68,0,0,1-6.68-.92Z"/><path class="cls-1" d="M121.34,20.15a18.91,18.91,0,0,1,.72-3.07l1.38-4.95H127l1.56-4.31h-3.82l1.58-5.56-6,1.74-1.09,3.82h-3L115,12.13h2.91l-1.38,5a19.62,19.62,0,0,0-.8,3.66c-.31,3.72,1.81,5.26,4.65,5.26a21,21,0,0,0,3.27-.31l1.11-4.07a5.27,5.27,0,0,1-1.77.48A1.63,1.63,0,0,1,121.34,20.15Z"/><path class="cls-1" d="M128.49,7.82h5.62l-4.83,17.8h-4.56L127.92,10Zm2-7.41h5.62L134.9,4.92h-5.61Z"/><path class="cls-1" d="M143.2,25.34a13.78,13.78,0,0,1-4.8.69c-4.69,0-7.28-3.66-6.9-8.13A11.2,11.2,0,0,1,142.74,7.41a12.9,12.9,0,0,1,5,1.2l-1.57,4.27a7.43,7.43,0,0,0-3.49-1c-2.87,0-5.08,2.05-5.39,5.74a3.37,3.37,0,0,0,3.5,3.86,8.23,8.23,0,0,0,3.64-.79Z"/><path class="cls-1" d="M145.13,21.25a10,10,0,0,0,3.63.68c.9,0,3.12-.1,3.25-1.57.21-2.53-6.53-1.23-6-7.11.35-4.16,4.87-5.84,8.6-5.84a16,16,0,0,1,5.24,1.06l-2.13,3.76a9.59,9.59,0,0,0-3.74-.72c-1.23,0-2.61.31-2.72,1.54-.16,2,6.79,1.84,6.41,6.32S153.73,26,149.56,26a22.68,22.68,0,0,1-6.68-.92Z"/><path class="cls-1" d="M94,7.82l-1,3.25H93c-.71-2.56-2.8-3.66-5.24-3.66-5.18,0-9,4.61-9.45,10.11-.4,4.72,1.48,8.1,5.89,8.1a6.69,6.69,0,0,0,5.5-3.11l.06.07c-1.25,4.54-2.78,6-6.66,5.9h-7a2.54,2.54,0,0,1,.32.34,2.46,2.46,0,0,1,.43,1.11,3.31,3.31,0,0,1-.11,1.27,4,4,0,0,1-.56,1.21,4.29,4.29,0,0,1-.89,1c-.1.08-.21.14-.31.21h7.31c6.66,0,10-2.46,12-9.36l4.4-16.4Zm-2.85,7.52c-.2,2.32-1.71,5.57-4.54,5.57-1.76,0-2.78-1.44-2.62-3.28.21-2.5,1.69-5.5,4.47-5.5C90.4,12.13,91.31,13.46,91.15,15.34Z"/><path class="cls-1" d="M53.21,28.22l0,.2a2.31,2.31,0,0,0-1.19-.3,3,3,0,0,0-3,2.41A2.07,2.07,0,0,0,51.2,33a2.92,2.92,0,0,0,1.3-.3.75.75,0,0,1,0,.16,1,1,0,0,1-.1.28,1.45,1.45,0,0,1-1.29.74,1,1,0,0,1-1-.78l0-.18-1.27.62,0,.06A2.16,2.16,0,0,0,49,34a2.22,2.22,0,0,0,1.93,1,2.86,2.86,0,0,0,2.9-2.29l.73-4.49Zm-.37,2.31a1.44,1.44,0,0,1-1.45,1.24,1,1,0,0,1-1-1.24,1.44,1.44,0,0,1,1.44-1.24A1,1,0,0,1,52.84,30.53Z"/><path class="cls-1" d="M55.86,33.17h-1.3l.8-5h1.3v.07a2.56,2.56,0,0,1,.9-.17,3,3,0,0,1,.61.08h.07L58,29.41l-.22-.05-.23-.05-.22,0a1,1,0,0,0-1,.92Z"/><path class="cls-1" d="M58.55,31.39l.51-3.18h1.31l-.48,3c-.08.48.11.92.72.92a1,1,0,0,0,1-.92l.48-3h1.31l-.8,5H61.31v-.06a2.74,2.74,0,0,1-.89.16C59.09,33.27,58.38,32.42,58.55,31.39Z"/><path class="cls-1" d="M64.46,35h-1.3l1.09-6.78h1.3l0,.18a3,3,0,0,1,1.31-.29A2.08,2.08,0,0,1,69,29.6a2.54,2.54,0,0,1,0,1.1,2.91,2.91,0,0,1-.41,1.09A3.07,3.07,0,0,1,66,33.29,2.56,2.56,0,0,1,64.78,33Zm3.21-4.29c.11-.67-.14-1.42-1-1.42a1.6,1.6,0,0,0-1.5,1.42c-.1.66.18,1.4,1,1.4A1.55,1.55,0,0,0,67.67,30.7Z"/><path class="cls-1" d="M69.7,31.77a2.45,2.45,0,0,1,0-1.08,3.07,3.07,0,0,1,3-2.59,2.09,2.09,0,0,1,2.19,1.57,2.69,2.69,0,0,1,0,1,3.2,3.2,0,0,1-.39,1.08,3.13,3.13,0,0,1-2.67,1.51A2.08,2.08,0,0,1,69.7,31.77Zm3.85-1.08c.11-.66-.15-1.41-1-1.41A1.56,1.56,0,0,0,71,30.69c-.11.67.15,1.4,1,1.4A1.56,1.56,0,0,0,73.55,30.69Z"/><path class="cls-1" d="M53.21,28.22l0,.2a2.31,2.31,0,0,0-1.19-.3,3,3,0,0,0-3,2.41A2.07,2.07,0,0,0,51.2,33a2.92,2.92,0,0,0,1.3-.3.75.75,0,0,1,0,.16,1,1,0,0,1-.1.28,1.45,1.45,0,0,1-1.29.74,1,1,0,0,1-1-.78l0-.18-1.27.62,0,.06A2.16,2.16,0,0,0,49,34a2.22,2.22,0,0,0,1.93,1,2.86,2.86,0,0,0,2.9-2.29l.73-4.49Zm-.37,2.31a1.44,1.44,0,0,1-1.45,1.24,1,1,0,0,1-1-1.24,1.44,1.44,0,0,1,1.44-1.24A1,1,0,0,1,52.84,30.53Z"/><path class="cls-2" d="M53.21,28.22l0,.2a2.31,2.31,0,0,0-1.19-.3,3,3,0,0,0-3,2.41A2.07,2.07,0,0,0,51.2,33a2.92,2.92,0,0,0,1.3-.3.75.75,0,0,1,0,.16,1,1,0,0,1-.1.28,1.45,1.45,0,0,1-1.29.74,1,1,0,0,1-1-.78l0-.18-1.27.62,0,.06A2.16,2.16,0,0,0,49,34a2.22,2.22,0,0,0,1.93,1,2.86,2.86,0,0,0,2.9-2.29l.73-4.49Zm-.37,2.31a1.44,1.44,0,0,1-1.45,1.24,1,1,0,0,1-1-1.24,1.44,1.44,0,0,1,1.44-1.24A1,1,0,0,1,52.84,30.53Z"/><path class="cls-2" d="M55.86,33.17h-1.3l.8-5h1.3v.07a2.56,2.56,0,0,1,.9-.17,3,3,0,0,1,.61.08h.07L58,29.41l-.22-.05-.23-.05-.22,0a1,1,0,0,0-1,.92Z"/><path class="cls-2" d="M58.55,31.39l.51-3.18h1.31l-.48,3c-.08.48.11.92.72.92a1,1,0,0,0,1-.92l.48-3h1.31l-.8,5H61.31v-.06a2.74,2.74,0,0,1-.89.16C59.09,33.27,58.38,32.42,58.55,31.39Z"/><path class="cls-2" d="M64.46,35h-1.3l1.09-6.78h1.3l0,.18a3,3,0,0,1,1.31-.29A2.08,2.08,0,0,1,69,29.6a2.54,2.54,0,0,1,0,1.1,2.91,2.91,0,0,1-.41,1.09A3.07,3.07,0,0,1,66,33.29,2.56,2.56,0,0,1,64.78,33Zm3.21-4.29c.11-.67-.14-1.42-1-1.42a1.6,1.6,0,0,0-1.5,1.42c-.1.66.18,1.4,1,1.4A1.55,1.55,0,0,0,67.67,30.7Z"/><path class="cls-2" d="M69.7,31.77a2.45,2.45,0,0,1,0-1.08,3.07,3.07,0,0,1,3-2.59,2.09,2.09,0,0,1,2.19,1.57,2.69,2.69,0,0,1,0,1,3.2,3.2,0,0,1-.39,1.08,3.13,3.13,0,0,1-2.67,1.51A2.08,2.08,0,0,1,69.7,31.77Zm3.85-1.08c.11-.66-.15-1.41-1-1.41A1.56,1.56,0,0,0,71,30.69c-.11.67.15,1.4,1,1.4A1.56,1.56,0,0,0,73.55,30.69Z"/></g></g></svg>