<?xml version="1.0" encoding="UTF-8"?>
<svg id="Layer_2" data-name="Layer 2" xmlns="http://www.w3.org/2000/svg" viewBox="0 0 733.33 733.33">
  <defs>
    <style>
      .cls-1, .cls-2 {
        fill: #fff;
      }

      .cls-2 {
        fill-rule: evenodd;
      }
    </style>
  </defs>
  <g id="Layer_1-2" data-name="Layer 1">
    <g id="SVGRepo_iconCarrier" data-name="SVGRepo iconCarrier">
      <path class="cls-1" d="M183.33,233.33c27.61,0,50-22.39,50-50s-22.39-50-50-50-50,22.39-50,50,22.39,50,50,50Z"/>
      <path class="cls-1" d="M133.33,300c0-18.41,14.92-33.33,33.33-33.33h33.33c18.41,0,33.33,14.92,33.33,33.33v266.67c0,18.41-14.92,33.33-33.33,33.33h-33.33c-18.41,0-33.33-14.92-33.33-33.33v-266.67Z"/>
      <path class="cls-1" d="M333.33,600h33.33c18.41,0,33.33-14.92,33.33-33.33v-150c0-50,100-83.33,100-16.67v166.68c0,18.41,14.92,33.32,33.33,33.32h33.33c18.41,0,33.33-14.92,33.33-33.33v-200c0-66.67-50-100-116.67-100s-83.33,50-83.33,50v-16.67c0-18.41-14.92-33.33-33.33-33.33h-33.33c-18.41,0-33.33,14.92-33.33,33.33v266.67c0,18.41,14.92,33.33,33.33,33.33Z"/>
      <path class="cls-2" d="M633.33,0c55.23,0,100,44.77,100,100v533.33c0,55.23-44.77,100-100,100H100c-55.23,0-100-44.77-100-100V100C0,44.77,44.77,0,100,0h533.33ZM633.33,66.67c18.41,0,33.33,14.92,33.33,33.33v533.33c0,18.41-14.92,33.33-33.33,33.33H100c-18.41,0-33.33-14.92-33.33-33.33V100c0-18.41,14.92-33.33,33.33-33.33h533.33Z"/>
    </g>
  </g>
</svg>