<svg xmlns="http://www.w3.org/2000/svg" viewBox="0 0 25 25"><defs><style>.cls-1{fill:#fff;}.cls-2{fill:#606060;stroke:#fff;stroke-miterlimit:10;}</style></defs><g id="Layer_2" data-name="Layer 2"><g id="Layer_1-2" data-name="Layer 1"><rect class="cls-1" width="25" height="25"/><path class="cls-2" d="M20,5a2.81,2.81,0,0,1,2.81,2.81v9.38A2.81,2.81,0,0,1,20,20H5a2.81,2.81,0,0,1-2.81-2.81V7.81A2.81,2.81,0,0,1,5,5Zm-.7,1.88H5.7l6.22,4.9a.93.93,0,0,0,1.16,0ZM4.06,8v9.22a.93.93,0,0,0,.94.93H20a.93.93,0,0,0,.94-.93V8l-6.7,5.29a2.82,2.82,0,0,1-3.48,0Z"/></g></g></svg>