<svg xmlns="http://www.w3.org/2000/svg" viewBox="0 0 40.18 40.63"><defs><style>.cls-1{fill:#dd001b;}</style></defs><g id="Layer_2" data-name="Layer 2"><g id="Layer_1-2" data-name="Layer 1"><path class="cls-1" d="M17.79,23a27.93,27.93,0,0,1-.5-4.86A27.64,27.64,0,0,0,3.66,26.22L16.49,39.05a5.43,5.43,0,0,0,7.66,0l1.47-1.48A27.59,27.59,0,0,1,17.79,23Z"/><path class="cls-1" d="M37.05,14.48l-10-10a27.85,27.85,0,0,0-3.7,8A27.59,27.59,0,0,1,37.05,14.48Z"/><path class="cls-1" d="M17.59,13.68A28,28,0,0,1,23.1.77a5.41,5.41,0,0,0-6.61.81L1.59,16.49a5.4,5.4,0,0,0,0,7.65l1.16,1.17A27.74,27.74,0,0,1,17.59,13.68Z"/><path class="cls-1" d="M22.42,17.35a27.79,27.79,0,0,0,4.89,18.53L39.05,24.14a5.14,5.14,0,0,0,1.13-1.67A27.66,27.66,0,0,0,22.42,17.35Z"/></g></g></svg>