<svg xmlns="http://www.w3.org/2000/svg" viewBox="0 0 725.97 155.92"><defs><style>.cls-1{fill:#e2001a;}.cls-2,.cls-3{fill:#3e3e40;}.cls-3{stroke:#fff;stroke-miterlimit:10;stroke-width:0.5px;}</style></defs><g id="Layer_2" data-name="Layer 2"><g id="old_LOGOTIPO" data-name="old LOGOTIPO"><path class="cls-1" d="M187.21,117a5.66,5.66,0,0,0-2.28-1.83,8,8,0,0,0-3.32-.65,10.87,10.87,0,0,0-3.69.65,11.6,11.6,0,0,0-3.3,1.83,12.47,12.47,0,0,0-2.58,2.79,11.64,11.64,0,0,0-1.62,3.5,8.94,8.94,0,0,0-.31,3.49,6.17,6.17,0,0,0,1,2.79,5.48,5.48,0,0,0,2.3,1.84,8,8,0,0,0,3.32.65,10.73,10.73,0,0,0,3.68-.65,12,12,0,0,0,3.3-1.84,12.57,12.57,0,0,0,2.6-2.79,11.93,11.93,0,0,0,1.61-3.49,9,9,0,0,0,.32-3.5A6,6,0,0,0,187.21,117Zm-3.91,8.36a7.26,7.26,0,0,1-1.44,1.63,7.18,7.18,0,0,1-1.9,1.11,6,6,0,0,1-2.21.41,4.42,4.42,0,0,1-2-.41,3.24,3.24,0,0,1-1.28-1.11,3.29,3.29,0,0,1-.54-1.63,5.62,5.62,0,0,1,.22-2.07,7.4,7.4,0,0,1,.92-2.07,6.71,6.71,0,0,1,1.44-1.64,7.12,7.12,0,0,1,1.89-1.11,6,6,0,0,1,2.21-.4,4.44,4.44,0,0,1,2,.4,3.39,3.39,0,0,1,1.28,1.11,3.58,3.58,0,0,1,.54,1.63,6.13,6.13,0,0,1-.22,2.08A7.53,7.53,0,0,1,183.3,125.39Z"/><path class="cls-1" d="M207,117a5.62,5.62,0,0,0-2.29-1.83,8,8,0,0,0-3.32-.65,10.27,10.27,0,0,0-1.94.19,11.17,11.17,0,0,0-2,.62,11.45,11.45,0,0,0-1.63.84l.35-1.26h-3.74l-6.66,24.14h3.75l2.38-8.65a5.28,5.28,0,0,0,1.16.84,6.35,6.35,0,0,0,1.7.62,8.71,8.71,0,0,0,1.84.2,10.71,10.71,0,0,0,3.67-.65,12.22,12.22,0,0,0,5.9-4.63,11.7,11.7,0,0,0,1.62-3.49,9,9,0,0,0,.31-3.5A6.08,6.08,0,0,0,207,117Zm-3.92,8.36a6.64,6.64,0,0,1-1.44,1.63,7.29,7.29,0,0,1-1.89,1.11,6,6,0,0,1-2.21.41,4.42,4.42,0,0,1-2-.42,3.59,3.59,0,0,1-1.39-1.12,3.72,3.72,0,0,1-.68-1.67,4.68,4.68,0,0,1,.15-2,6.28,6.28,0,0,1,1-2,7.65,7.65,0,0,1,1.59-1.67,7.91,7.91,0,0,1,2-1.12,6.23,6.23,0,0,1,2.21-.41,4.44,4.44,0,0,1,2,.4,3.24,3.24,0,0,1,1.28,1.11,3.36,3.36,0,0,1,.54,1.63,5.87,5.87,0,0,1-.22,2.08A7.8,7.8,0,0,1,203.08,125.39Z"/><path class="cls-1" d="M225.46,117a5.07,5.07,0,0,0-2-1.8,7,7,0,0,0-3.22-.68,9.86,9.86,0,0,0-3.56.67,11.94,11.94,0,0,0-3.16,1.86,12.31,12.31,0,0,0-2.51,2.77,12.11,12.11,0,0,0-1.56,3.43,9.81,9.81,0,0,0-.37,3.51,5.85,5.85,0,0,0,1,2.8,5.28,5.28,0,0,0,2.19,1.84,7.48,7.48,0,0,0,3.27.66,11.43,11.43,0,0,0,4.27-.83,11.11,11.11,0,0,0,4-2.78l.62-.67-2.18-2.39-.79.9a7,7,0,0,1-4.86,2.22,3.84,3.84,0,0,1-2.2-.52,3.24,3.24,0,0,1-1.1-1.31,3.47,3.47,0,0,1-.32-1.56c0-.16,0-.31,0-.45h12.45l.62-2.26a8.25,8.25,0,0,0,.29-2.86A5.69,5.69,0,0,0,225.46,117Zm-3,4.12H214a7.59,7.59,0,0,1,2.83-2.54,4.92,4.92,0,0,1,2.31-.51,3.67,3.67,0,0,1,1.59.32,3,3,0,0,1,1.13.86,2.87,2.87,0,0,1,.56,1.27A3,3,0,0,1,222.5,121.15Z"/><path class="cls-1" d="M238.28,114.55a7,7,0,0,0-3.66,1,8.6,8.6,0,0,0-.74.49l.27-1.11h-3.71l-.25.9c-.06.2-.12.49-.21.87s-.72,3.07-.79,3.34L226,131.7h3.74l2.5-9.06a7.77,7.77,0,0,1,.75-1.8,5.77,5.77,0,0,1,1.09-1.35,4.68,4.68,0,0,1,1.43-.87,5.26,5.26,0,0,1,1.92-.33,1.52,1.52,0,0,1,.44.08l1,.34,1.5-3.81-1.31-.29A4.08,4.08,0,0,0,238.28,114.55Z"/><path class="cls-1" d="M251,129.43c.08-.42.18-.87.29-1.36l.39-1.6c.15-.58,1.54-5.62,1.54-5.62.6-2.17.39-3.8-.63-4.83a6.1,6.1,0,0,0-4.49-1.47,11.84,11.84,0,0,0-3.5.58,11.13,11.13,0,0,0-3.48,1.78l-.77.58,1.54,2.66.84-.59a7.62,7.62,0,0,1,4.39-1.46,3.52,3.52,0,0,1,2.31.67c.44.39.52,1.06.25,2h-1.37q-1.14,0-2.67.15a13,13,0,0,0-3.15.71,9,9,0,0,0-3,1.75,6.55,6.55,0,0,0-2,3.31,4.62,4.62,0,0,0-.1,2.48,3.48,3.48,0,0,0,1,1.67,4.29,4.29,0,0,0,1.73.91,7.7,7.7,0,0,0,2.06.28,8.88,8.88,0,0,0,3.81-.79,8,8,0,0,0,1.16-.68c0,.11-.11,1.08-.11,1.08h3.61l.14-1C250.81,130.26,250.87,129.85,251,129.43Zm-7.76-.89a2.82,2.82,0,0,1-.92-.15,1.93,1.93,0,0,1-.72-.39,1.2,1.2,0,0,1-.36-.58,1.36,1.36,0,0,1,0-.77,2,2,0,0,1,.62-1,4.15,4.15,0,0,1,1.35-.79,8.78,8.78,0,0,1,2-.49,17.38,17.38,0,0,1,2.29-.16h1.24l0,.11a9,9,0,0,1-.65,1.65,4.57,4.57,0,0,1-1,1.29,4.93,4.93,0,0,1-1.53.93A6.16,6.16,0,0,1,243.2,128.54Z"/><path class="cls-1" d="M270.92,116.2a5.31,5.31,0,0,0-1.15-.84,6.68,6.68,0,0,0-1.71-.62,8.71,8.71,0,0,0-1.84-.19,10.81,10.81,0,0,0-3.68.65,11.77,11.77,0,0,0-3.31,1.83,12.71,12.71,0,0,0-2.58,2.79,11.62,11.62,0,0,0-1.61,3.5,9,9,0,0,0-.32,3.49,6.07,6.07,0,0,0,1.05,2.79,5.53,5.53,0,0,0,2.29,1.84,8.07,8.07,0,0,0,3.33.65,10.33,10.33,0,0,0,1.95-.2,10,10,0,0,0,2-.62,11.35,11.35,0,0,0,1.62-.84l-.35,1.27h3.75L277.21,107h-3.74Zm-12.14,7.12a7.4,7.4,0,0,1,.92-2.07,6.75,6.75,0,0,1,1.45-1.64A7.07,7.07,0,0,1,263,118.5a6.07,6.07,0,0,1,2.22-.4,4.45,4.45,0,0,1,2,.41,3.87,3.87,0,0,1,1.39,1.12,3.82,3.82,0,0,1,.67,1.67,4.88,4.88,0,0,1-.14,2,6.55,6.55,0,0,1-1,2A7.62,7.62,0,0,1,266.6,127a8.11,8.11,0,0,1-2,1.13,6.08,6.08,0,0,1-2.22.42,4.44,4.44,0,0,1-2-.41A3.39,3.39,0,0,1,259.1,127a3.5,3.5,0,0,1-.54-1.63A5.84,5.84,0,0,1,258.78,123.32Z"/><path class="cls-1" d="M291.61,117a5.62,5.62,0,0,0-2.29-1.83,8,8,0,0,0-3.31-.65,10.82,10.82,0,0,0-3.69.65A11.66,11.66,0,0,0,279,117a12.72,12.72,0,0,0-2.58,2.79,11.87,11.87,0,0,0-1.61,3.5,8.94,8.94,0,0,0-.31,3.49,6.17,6.17,0,0,0,1,2.79,5.59,5.59,0,0,0,2.29,1.84,8.11,8.11,0,0,0,3.33.65,10.73,10.73,0,0,0,3.68-.65,11.86,11.86,0,0,0,3.29-1.84,12.16,12.16,0,0,0,2.61-2.79,11.93,11.93,0,0,0,1.61-3.49,8.81,8.81,0,0,0,.31-3.5A5.91,5.91,0,0,0,291.61,117Zm-3.92,8.36a6.62,6.62,0,0,1-1.44,1.63,7,7,0,0,1-1.89,1.11,6,6,0,0,1-2.21.41,4.39,4.39,0,0,1-2-.41,3.24,3.24,0,0,1-1.28-1.11,3.4,3.4,0,0,1-.55-1.63,5.86,5.86,0,0,1,.23-2.07,7.67,7.67,0,0,1,.91-2.07,7,7,0,0,1,3.34-2.75,6,6,0,0,1,2.21-.4,4.44,4.44,0,0,1,2,.4,3.39,3.39,0,0,1,1.28,1.11,3.58,3.58,0,0,1,.54,1.63,6.13,6.13,0,0,1-.22,2.08A7.87,7.87,0,0,1,287.69,125.39Z"/><path class="cls-1" d="M304.89,114.55a7,7,0,0,0-3.66,1c-.25.15-.5.32-.74.49l.27-1.11h-3.71l-.25.9c-.06.2-.13.5-.21.87,0,0-.72,3.07-.79,3.34l-3.21,11.65h3.74l2.5-9.06a8,8,0,0,1,.74-1.8,5.8,5.8,0,0,1,1.1-1.35,4.68,4.68,0,0,1,1.43-.87,5.22,5.22,0,0,1,1.92-.33,1.52,1.52,0,0,1,.44.08l1,.34,1.5-3.81-1.32-.29A3.88,3.88,0,0,0,304.89,114.55Z"/><polygon class="cls-1" points="312.11 131.7 315.86 131.7 322.68 106.97 318.93 106.97 312.11 131.7"/><path class="cls-1" d="M337.82,117a5.62,5.62,0,0,0-2.29-1.83,8,8,0,0,0-3.31-.65,10.82,10.82,0,0,0-3.69.65,11.66,11.66,0,0,0-3.31,1.83,12.72,12.72,0,0,0-2.58,2.79,11.87,11.87,0,0,0-1.61,3.5,8.94,8.94,0,0,0-.31,3.49,6.17,6.17,0,0,0,1,2.79,5.59,5.59,0,0,0,2.29,1.84,8.11,8.11,0,0,0,3.33.65,10.73,10.73,0,0,0,3.68-.65,12.12,12.12,0,0,0,3.29-1.84,12.38,12.38,0,0,0,2.61-2.79,11.93,11.93,0,0,0,1.61-3.49,8.81,8.81,0,0,0,.31-3.5A5.91,5.91,0,0,0,337.82,117Zm-3.92,8.36a6.62,6.62,0,0,1-1.44,1.63,7,7,0,0,1-1.89,1.11,6,6,0,0,1-2.21.41,4.39,4.39,0,0,1-2-.41A3.24,3.24,0,0,1,325.1,127a3.4,3.4,0,0,1-.55-1.63,6.08,6.08,0,0,1,.22-2.07,8,8,0,0,1,.92-2.07A7,7,0,0,1,329,118.5a6,6,0,0,1,2.21-.4,4.47,4.47,0,0,1,2,.4,3.39,3.39,0,0,1,1.28,1.11,3.58,3.58,0,0,1,.54,1.63,6.13,6.13,0,0,1-.22,2.08A7.87,7.87,0,0,1,333.9,125.39Z"/><path class="cls-1" d="M356.18,116.1a5.41,5.41,0,0,0-.83-.67,6.67,6.67,0,0,0-3.57-.88,10.38,10.38,0,0,0-3.65.68,13.62,13.62,0,0,0-3.32,1.83,13.14,13.14,0,0,0-2.66,2.71,10.44,10.44,0,0,0-1.64,3.35,7.76,7.76,0,0,0-.21,3.35,6.22,6.22,0,0,0,1.16,2.72,6.05,6.05,0,0,0,2.32,1.84,7.77,7.77,0,0,0,3.27.67,9.48,9.48,0,0,0,4.06-.89,11.8,11.8,0,0,0,1.2-.67q-.1.36-.27.87a8.4,8.4,0,0,1-.54,1.28,9,9,0,0,1-.85,1.33,6,6,0,0,1-1.17,1.14,5.49,5.49,0,0,1-1.6.83,7.1,7.1,0,0,1-2.29.33,6.07,6.07,0,0,1-2.77-.61,3.47,3.47,0,0,1-1.72-1.83l-.36-.84-3.62,2.69.33.65a5.33,5.33,0,0,0,1.14,1.5,6.31,6.31,0,0,0,1.65,1.09,8.65,8.65,0,0,0,2.05.67,11.65,11.65,0,0,0,2.33.23,13.6,13.6,0,0,0,2.82-.35,10.21,10.21,0,0,0,3.35-1.43,11.92,11.92,0,0,0,3.11-3,14.73,14.73,0,0,0,2.24-4.88l4.1-14.89H356.5Zm-11.92,7a6.29,6.29,0,0,1,.93-2,8,8,0,0,1,1.52-1.6,7.63,7.63,0,0,1,1.89-1.07,5.79,5.79,0,0,1,2.07-.39,4.22,4.22,0,0,1,1.85.39,3.53,3.53,0,0,1,1.3,1.07,3.66,3.66,0,0,1,.63,1.6,4.59,4.59,0,0,1-.14,2,6.53,6.53,0,0,1-.93,2,7.72,7.72,0,0,1-1.52,1.6,7.5,7.5,0,0,1-1.89,1.07,5.6,5.6,0,0,1-2.07.4,4.06,4.06,0,0,1-1.85-.4,3.55,3.55,0,0,1-1.31-1.07,3.74,3.74,0,0,1-.63-1.6A4.77,4.77,0,0,1,344.26,123.12Z"/><polygon class="cls-1" points="358.9 131.7 362.65 131.7 367.27 114.94 363.52 114.94 358.9 131.7"/><polygon class="cls-1" points="373.74 106.97 368.62 106.97 362.17 113.44 365.95 113.44 373.74 106.97"/><path class="cls-1" d="M377.71,122.12a7.79,7.79,0,0,0-2.17-.7,16.42,16.42,0,0,1-1.91-.44,3.12,3.12,0,0,1-1.18-.62c-.11-.1-.21-.28-.08-.77a1.16,1.16,0,0,1,.29-.52,2.57,2.57,0,0,1,.65-.5,3.77,3.77,0,0,1,.87-.35,3.55,3.55,0,0,1,.87-.12,2.52,2.52,0,0,1,1.56.39,2.21,2.21,0,0,1,.73,1.23l.21.84,3.83-2-.18-.76a3.81,3.81,0,0,0-1.79-2.53,6.66,6.66,0,0,0-3.38-.77,8.64,8.64,0,0,0-2.17.29,8.19,8.19,0,0,0-2.18.93,7.91,7.91,0,0,0-1.89,1.64,6.12,6.12,0,0,0-1.21,2.35,3.63,3.63,0,0,0,.11,2.78,3.75,3.75,0,0,0,1.55,1.45,8.11,8.11,0,0,0,2.15.71,18.32,18.32,0,0,1,1.91.48,2.88,2.88,0,0,1,1.16.66c.1.1.23.31.08.84a1.6,1.6,0,0,1-.37.69,3.14,3.14,0,0,1-.71.59,4.14,4.14,0,0,1-1,.43,3.72,3.72,0,0,1-3-.38,2.25,2.25,0,0,1-1-1.45l-.21-.9-3.85,2.2.21.72a4.24,4.24,0,0,0,2.14,2.68,7.83,7.83,0,0,0,3.7.83,9.17,9.17,0,0,0,2.38-.33,8.55,8.55,0,0,0,2.31-1,7.63,7.63,0,0,0,1.93-1.74,6.81,6.81,0,0,0,1.21-2.44,4,4,0,0,0-.06-2.91A3.56,3.56,0,0,0,377.71,122.12Z"/><path class="cls-1" d="M389,128.1a8.79,8.79,0,0,1-1,.32,3.81,3.81,0,0,1-.92.12c-.6,0-.75-.22-.81-.29a1.07,1.07,0,0,1,0-.92l2.44-8.85h4.27l1-3.54h-4.27l1.18-4.31h-3.74l-1.19,4.31h-3.24l-1,3.54h3.23l-2.44,8.85a6,6,0,0,0-.23,1.76,3.13,3.13,0,0,0,.42,1.56,2.73,2.73,0,0,0,1.24,1.06,4.82,4.82,0,0,0,2,.38,7.66,7.66,0,0,0,1.51-.19c.55-.12,1-.25,1.48-.39l.72-.23.67-3.7Z"/><polygon class="cls-1" points="391.29 131.7 395.03 131.7 399.65 114.94 395.91 114.94 391.29 131.7"/><path class="cls-1" d="M399.82,107.55a3,3,0,0,0-1.87.69,3.2,3.2,0,0,0-1.14,1.67,1.9,1.9,0,0,0,.22,1.67,1.75,1.75,0,0,0,1.48.69,3,3,0,0,0,1.87-.69,3.21,3.21,0,0,0,1.14-1.67,1.94,1.94,0,0,0-.22-1.68A1.77,1.77,0,0,0,399.82,107.55Z"/><path class="cls-1" d="M411.32,126.81a7.27,7.27,0,0,1-1.85,1.27,4.32,4.32,0,0,1-1.94.46,4.42,4.42,0,0,1-2-.41,3.24,3.24,0,0,1-1.28-1.11,3.29,3.29,0,0,1-.54-1.63,5.79,5.79,0,0,1,.22-2.07,7.73,7.73,0,0,1,.92-2.08,6.93,6.93,0,0,1,3.33-2.74,6,6,0,0,1,2.21-.4,3,3,0,0,1,1.63.43,3.89,3.89,0,0,1,1.25,1.27l.38.62,3.62-2.25-.46-.73a5.88,5.88,0,0,0-2.2-2.12,6.61,6.61,0,0,0-3.24-.77,10.82,10.82,0,0,0-3.69.65,11.47,11.47,0,0,0-3.3,1.83,12.72,12.72,0,0,0-2.58,2.79,11.64,11.64,0,0,0-1.62,3.5,8.94,8.94,0,0,0-.31,3.49,6.17,6.17,0,0,0,1,2.79,5.51,5.51,0,0,0,2.29,1.84,8.11,8.11,0,0,0,3.33.65,9.62,9.62,0,0,0,3.59-.72,11.82,11.82,0,0,0,3.42-2.2l.76-.7-2.23-2.39Z"/><path class="cls-1" d="M433.63,119.82a6.08,6.08,0,0,0-1.06-2.79,5.62,5.62,0,0,0-2.29-1.83,8,8,0,0,0-3.32-.65,10.81,10.81,0,0,0-3.68.65A11.52,11.52,0,0,0,420,117a12.72,12.72,0,0,0-2.58,2.79,11.62,11.62,0,0,0-1.61,3.5,9,9,0,0,0-.32,3.49,6.07,6.07,0,0,0,1.05,2.79,5.51,5.51,0,0,0,2.29,1.84,8,8,0,0,0,3.33.65,10.71,10.71,0,0,0,3.67-.65,11.77,11.77,0,0,0,3.3-1.84,12.34,12.34,0,0,0,2.6-2.79,11.43,11.43,0,0,0,1.61-3.49A8.83,8.83,0,0,0,433.63,119.82Zm-5,5.57a6.85,6.85,0,0,1-1.44,1.63,7,7,0,0,1-1.89,1.11,6,6,0,0,1-2.21.41,4.44,4.44,0,0,1-2-.41,3.24,3.24,0,0,1-1.28-1.11,3.39,3.39,0,0,1-.54-1.63,6,6,0,0,1,.22-2.07,7.73,7.73,0,0,1,.92-2.08,7.26,7.26,0,0,1,1.44-1.63,7.07,7.07,0,0,1,1.9-1.11,6,6,0,0,1,2.2-.4,4.31,4.31,0,0,1,2,.41,3.14,3.14,0,0,1,1.28,1.1,3.4,3.4,0,0,1,.54,1.64,5.66,5.66,0,0,1-.22,2.07A7.4,7.4,0,0,1,428.65,125.39Z"/><path class="cls-2" d="M198.4,22.57h19.76c16.24,0,32.43,1.88,30.69,22.59C247.13,65.63,231.19,76,213.35,76H203.26l-7.93,28.7H175.58Zm9.14,37.88h5.31c7.85,0,15.23-3.06,16.05-12.82.66-7.88-4.09-9.53-9.4-9.53h-5.84Z"/><path class="cls-2" d="M256.63,16.45H276l-24,88.23H232.65Z"/><path class="cls-2" d="M315.21,88.68c-1.4,5.29-2.69,10.47-3.68,16H293.8l2.32-10h-.21c-6.1,6.81-12.21,11.41-22.3,11.41-11.15,0-16.43-9.18-15.42-21.18.34-4.12.86-6.47,2.57-12.94l7.5-28.59H288L280.29,72.1a55.84,55.84,0,0,0-2.05,9.29c-.31,3.64,1.5,7.29,6.83,7.06,8.07,0,13.5-7.77,15.64-16.82l7.8-28.24h19.11Z"/><path class="cls-2" d="M318.54,89.65A34.29,34.29,0,0,0,331.05,92c3.09,0,10.76-.36,11.18-5.41.74-8.71-22.47-4.24-20.77-24.47C322.67,47.75,338.23,42,351.08,42a55.28,55.28,0,0,1,18.06,3.65L361.8,58.56a32.83,32.83,0,0,0-12.86-2.46c-4.25,0-9,1-9.37,5.29-.57,6.82,23.36,6.35,22.07,21.77-1.28,15.17-13.49,22.7-27.84,22.94a77.11,77.11,0,0,1-23-3.18Z"/><path class="cls-2" d="M379.18,16.45H398.5l-24,88.23H355.19Z"/><path class="cls-2" d="M408.48,106.1c-20.5,0-27.72-12.59-26.42-28C383.87,56.57,399.11,42,420.77,42c18.79,0,27.77,12,26.47,27.41C445.09,94.92,429.18,106.1,408.48,106.1Zm10.09-49.3c-9.24,0-15.91,11.06-16.73,20.82-.69,8.24,2.78,13.77,9.27,13.65,8.92,0,15.23-8.23,16.4-22.12C428,62.8,426,56.8,418.57,56.8Z"/><path class="cls-2" d="M515.29,43.39h19.33L518,104.68h-15.7l10-50.21Zm7-25.52h19.32l-4.27,15.52H518Z"/><path class="cls-2" d="M525.49,89.65A34.25,34.25,0,0,0,538,92c3.08,0,10.76-.36,11.18-5.41.73-8.71-22.47-4.24-20.77-24.47C529.62,47.75,545.18,42,558,42a55.33,55.33,0,0,1,18.06,3.65l-7.34,12.93a32.88,32.88,0,0,0-12.87-2.46c-4.24,0-9,1-9.36,5.29-.57,6.82,23.36,6.35,22.06,21.77-1.27,15.17-13.48,22.7-27.83,22.94a77,77,0,0,1-23-3.18Z"/><path class="cls-2" d="M593.46,85.86c.25-2.94,1.25-6,2.48-10.59l4.73-17h12.11l5.38-14.83H605l5.43-19.17-20.68,6L586,43.39H575.68l-4,14.83h10l-4.73,17.17c-1.82,6.47-2.5,9.53-2.76,12.59-1.08,12.82,6.23,18.12,16,18.12A71.14,71.14,0,0,0,601.45,105l3.8-14a17.85,17.85,0,0,1-6.1,1.68C595.33,92.68,593.11,90,593.46,85.86Z"/><path class="cls-2" d="M618.09,43.39h19.32l-16.62,61.29h-15.7l11-54Zm7-25.52h19.32l-4.27,15.52H620.84Z"/><path class="cls-2" d="M668.75,103.74c-3.94,1.41-9.12,2.36-16.54,2.36-16.15,0-25.07-12.59-23.78-28C630.12,58,645.91,42,667.15,42a44.15,44.15,0,0,1,17.07,4.12l-5.38,14.7a25.73,25.73,0,0,0-12-3.29c-9.88,0-17.48,7.06-18.55,19.76-.61,7.29,4,13.3,12,13.3a28.7,28.7,0,0,0,12.55-2.71Z"/><path class="cls-2" d="M675.37,89.65A34.29,34.29,0,0,0,687.88,92c3.09,0,10.76-.36,11.18-5.41.74-8.71-22.47-4.24-20.77-24.47C679.5,47.75,695.06,42,707.91,42A55.28,55.28,0,0,1,726,45.63l-7.34,12.93a32.79,32.79,0,0,0-12.86-2.46c-4.25,0-9,1-9.37,5.29-.57,6.82,23.36,6.35,22.07,21.77-1.28,15.17-13.49,22.7-27.84,22.94a77.11,77.11,0,0,1-23-3.18Z"/><path class="cls-2" d="M499.29,43.39l-3.38,11.18h-.21C493.25,45.75,486,42,477.64,42c-17.83,0-30.95,15.88-32.55,34.82-1.36,16.23,5.09,27.88,20.27,27.88,7.54,0,14.13-3.88,18.95-10.71l.2.24c-4.29,15.65-9.58,20.58-22.93,20.34h-24a8.63,8.63,0,0,1,1.1,1.16,8.27,8.27,0,0,1,1.47,3.83,11,11,0,0,1-.38,4.38,14.07,14.07,0,0,1-1.92,4.16,14.35,14.35,0,0,1-3.07,3.29c-.34.27-.71.48-1.07.72h25.19c22.94,0,34.52-8.47,41.4-32.23l15.14-56.47Zm-9.82,25.88c-.67,8-5.86,19.18-15.63,19.18-6,0-9.57-4.94-9-11.29.72-8.59,5.84-18.94,15.4-18.94C486.89,58.22,490,62.8,489.47,69.27Z"/><path class="cls-3" d="M109.38,52.72c.72-.45,2.81-1.4,3.53-1.85,3.65-3,6.29-6.74,9.52-10.12,2.31-2.4,3.85-1.91,5.8-.17,4,3.52,8,7,11.76,10.65a6.72,6.72,0,0,0,7.78,1.5c2.63-1,3.39-3.26,3.13-6-.3-3.25,1.3-5.32,4.23-6.6s5.9-.58,7.65,1.75c1.19,1.57,1.86,4.54,1.17,6.23s-3.28,2.76-5.21,3.78c-1.57.83-3.54.92-5.09,1.79-2.94,1.64-3.55,4.43-1.39,7a112.44,112.44,0,0,0,8.22,8.41c4.06,3.84,4.27,3.92,1,8.48s-7.41,8.19-13,9.8c-3.55,1-5.85,0-7.43-3.39-1.23-2.64-2.1-5.5-3.64-7.94-2.15-3.39-5-4-9.41-2.6-4,1.25-7,5-7,8.91a7.45,7.45,0,0,0,5.4,7.51c1.38.49,2.8.88,4.21,1.32,5.47,1.71,7.52,7.24,3.92,11.61a41.37,41.37,0,0,1-8.39,7.51c-1,.67-3.47,0-4.77-.88-3.67-2.37-6.9-5.41-10.63-7.66-4.56-2.76-8-.66-9.68,4.61a9.55,9.55,0,0,1-4.32,4.87,5.53,5.53,0,0,1-7.49-2.61c-1.16-2.5.16-6,2.81-7.6,2.83-1.69,5.72-3.3,8.44-5.14,2.1-1.42,2.13-3.27.14-4.86-4.7-3.74-9.29-7.65-14.27-11-2.94-2-3-3.27-.57-5.5,4.15-3.8,8.31-7.62,12.22-11.66,3.07-3.17,2.58-5.64-1.49-7.24-2.82-1.1-6-1.09-8.36-2.83-3.25-2.37-3.22-6.14-.61-9,3.24-3.51,7.62-4.23,10.33-1.21,1.55,1.72,2.16,4.15,2.83,6.47A7.09,7.09,0,0,0,104,53,7.78,7.78,0,0,0,109.38,52.72Zm-51.6,50.76c.73-3.2-1.8-3.44-3.77-4-1.52-.42-3.18-.31-4.71-.68-4.37-1-6.81-4.57-6.56-9.25.2-3.82,4.09-8.3,7.65-8.82,6.58-1,11,2.63,11.89,9.3.45,3.22,2.36,4.83,5.83,3.32,5.29-2.17,8.6-6.48,11.48-11.07,2.36-3.73,1.75-5.85-2-8.28-2.77-1.8-5.93-3-8.52-5.07-2.18-1.7-4.84-3.9-5.41-6.32-1.14-4.86,1.3-7.46,6.46-8.6,4.06-.9,6.25-3.81,5.51-7.33s-3.9-5.7-7.76-4.9c-3.54.74-5,3.78-5.56,6.7a7.94,7.94,0,0,1-5.43,6.36c-3.37,1.24-6.47.31-8.91-2.6-2-2.44-4.25-4.75-6.44-7.07-3.28-3.47-4.13-3.55-7.37-.13-2.86,3-5.43,6.32-8.27,9.37-1.93,2.07-1.53,4,.48,5.27a33.65,33.65,0,0,0,7.92,3.58C38,64.44,41.19,69,40,72.25c-1.26,3.37-3.71,5.33-7.33,4.93-3.27-.37-6.38-1-7.2-5.36-.93-4.88-5.68-7.26-9.44-4.92C9.46,71,4.52,76.71.34,83.65c1.58,1.07,3,2,4.37,3C8,89,11.51,91,14.43,93.74c3.15,2.94,2.14,6.83-1.78,8.53-1.8.78-3.65,1.45-5.5,2.09-5.25,1.82-6.74,4.46-5.69,10.19.63,3.46,4.34,5.74,8.9,5.45,4.88-.31,7-2.31,8.58-8,1.41-5.19,5-6.27,8.88-2.64,2.89,2.68,5.72,5.42,8.59,8.12,4.33,4.06,4.6,3.93,8.67-.43,3.56-3.81,7.41-7.35,11.13-11Z"/><path class="cls-3" d="M46.51.25a10.12,10.12,0,0,1,6.84,7.47,11.63,11.63,0,0,0,1.73,3.6c4.7,6.48,9.45,6.58,15.07.76A135.09,135.09,0,0,1,81.28,2c.73-.6,2.6-.42,3.63.07a35.86,35.86,0,0,1,8.21,4.8c1.6,1.41,3.47,4.39,2.95,5.89a8.89,8.89,0,0,1-5.52,5C85,19.05,82,21.93,81.9,27.17c-.06,4.82,5.51,7.77,9.28,8.51,2.79.55,7.29-3,8.63-6.44a36.08,36.08,0,0,1,1.35-3.41c1.83-3.53,4-4,7-1.52,4,3.37,8,6.83,12,10.29,2.16,1.87,2.32,3.95.31,6-2.94,3.08-5.92,6.11-8.88,9.17l-2.16,1.37c-4.82,1.24-7.08,0-7.27-4.65-.16-3.94-2.46-5.76-5.6-6.86a9.15,9.15,0,0,0-9.29,1.93,8.93,8.93,0,0,0-2.94,10c1,3.4,4.17,4.73,7.7,5.23,2.13.3,5.55-.64,5.8,2.4.12,1.6-2.32,3.55-3.84,5.1-3.65,3.73-7.44,7.31-11.26,11-4.7-3-10.07-6-14.85-9.71-1.64-1.28-2.14-4-2-6.21.15-2.61,2.78-3.4,5.61-3.7,3.45-.37,6.63-5.15,6.1-8.39s-2.92-7.26-7.09-7.15c-6.22.17-8.72,1.66-10.11,7.95-1.09,5-6.72,6.42-9.75,3.76a75.17,75.17,0,0,1-8.39-8.35c-.65-.77-.24-3.27.56-4.28,2.6-3.24,5.61-6.16,8.45-9.21,2.49-2.68,2.47-5.79,1.26-8.94s-3.75-4.73-6.95-5.36c-.6-.12-1.25,0-1.84-.12-3-.78-6.08-2.18-6.27-5.36C37.31,8,38.88,5.36,40.23,3.21c.83-1.31,2.67-2,4.06-3ZM43.9,121c6.1,5.16,11.85,10.32,17.94,15,2.9,2.25,5.58.4,6.12-3.3a15.05,15.05,0,0,1,2.23-6,8.08,8.08,0,0,1,9.69-3.24c4.26,1.56,6.24,4.61,5.89,9.05-.25,3.09-3.33,6-7.26,6.81a27.49,27.49,0,0,0-4.63,1.15c-3.06,1.23-3.6,2.86-1.38,5.28,3,3.22,6.26,6.18,9.56,9.1,1.76,1.55,3.27.68,4.73-.91,3.81-4.18,7.71-8.28,11.65-12.33,4.87-5,9.07-4.12,11.67,2.18a14.33,14.33,0,0,0,3.21,5.21c2.2,2,5,1.9,7.51.25a9.38,9.38,0,0,0,3.59-9.38c-.93-3.32-3.65-3.17-6.19-3.44-.37,0-.74,0-1.11,0-3.57-.43-6.49-2.09-7.53-5.57s1.53-5.56,4.07-7.53,4.52-3.74,7-6c1.73-1.59,2.17-3.93.37-5.51a108.8,108.8,0,0,0-11.1-8.12c-2.76-1.86-5.1-.1-6.23,2.28a13.93,13.93,0,0,1-4.31,5.76,7.92,7.92,0,0,1-11.82-2.26c-2-3.78-.51-8.21,4.36-10.46,1.77-.83,3.41-1.94,5.1-2.92,2.26-1.31,2.82-3.1.57-5-3.68-3.06-6.68-5.43-10.4-8.44-2.67-2.15-4.53-1.64-6.63,1.2a56.9,56.9,0,0,1-9.34,10.3c-4.9,4-10.21,1.67-11.23-4.43-1-5.94-3.58-7.72-9.47-6.49-3,.62-6.24,4.47-6.05,7.14.27,3.91,2.58,6.11,6.38,6.87,2.57.52,5.46.78,7.78,2s2.34,3.09.55,5.3c-.91,1-1.46,2.12-2.22,3C52.92,112.46,48.18,115.75,43.9,121Z"/></g></g></svg>