<svg id="Capa_1" data-name="Capa 1" xmlns="http://www.w3.org/2000/svg" viewBox="0 0 712.54 155.42"><defs><style>.cls-1{fill:#e2001a;}.cls-2{fill:#3e3e40;}</style></defs><title>Pluslogistics</title><path class="cls-1" d="M68.06,88a106.88,106.88,0,0,1-1.93-18.61,105.67,105.67,0,0,0-52.13,31l49.07,49.07a20.72,20.72,0,0,0,29.3,0L98,143.72A105.66,105.66,0,0,1,68.06,88Z"/><path class="cls-1" d="M141.7,55.39,103.4,17.08A107,107,0,0,0,89.24,47.65,105.52,105.52,0,0,1,141.7,55.39Z"/><path class="cls-1" d="M67.29,52.34A106.33,106.33,0,0,1,88.37,3a20.71,20.71,0,0,0-25.3,3.09l-57,57a20.71,20.71,0,0,0,0,29.29l4.46,4.47A105.94,105.94,0,0,1,67.29,52.34Z"/><path class="cls-1" d="M85.75,66.36a106.07,106.07,0,0,0,18.72,70.89l44.9-44.9A20.52,20.52,0,0,0,153.71,86,106,106,0,0,0,85.75,66.36Z"/><path class="cls-1" d="M173.78,116.78A5.66,5.66,0,0,0,171.5,115a8,8,0,0,0-3.32-.65,10.77,10.77,0,0,0-3.68.65,11.77,11.77,0,0,0-3.31,1.83,12.69,12.69,0,0,0-2.58,2.79,11.76,11.76,0,0,0-1.62,3.5,8.94,8.94,0,0,0-.31,3.49,6.17,6.17,0,0,0,1,2.79,5.48,5.48,0,0,0,2.3,1.84,8,8,0,0,0,3.33.65,10.71,10.71,0,0,0,3.67-.65,11.77,11.77,0,0,0,3.3-1.84,12.57,12.57,0,0,0,2.6-2.79,11.68,11.68,0,0,0,1.61-3.49,9,9,0,0,0,.32-3.5A6,6,0,0,0,173.78,116.78Zm-3.91,8.36a6.93,6.93,0,0,1-3.33,2.74,6.12,6.12,0,0,1-2.22.41,4.42,4.42,0,0,1-2-.41,3.24,3.24,0,0,1-1.28-1.11,3.29,3.29,0,0,1-.54-1.63,5.84,5.84,0,0,1,.22-2.07,7.4,7.4,0,0,1,.92-2.07,7.1,7.1,0,0,1,1.44-1.64,6.84,6.84,0,0,1,1.89-1.1,5.83,5.83,0,0,1,2.21-.41,4.31,4.31,0,0,1,2,.41,3.28,3.28,0,0,1,1.28,1.1A3.58,3.58,0,0,1,171,121a6.13,6.13,0,0,1-.22,2.08A7.53,7.53,0,0,1,169.87,125.14Z"/><path class="cls-1" d="M193.57,116.78a5.7,5.7,0,0,0-2.29-1.83,8,8,0,0,0-3.32-.65,10.27,10.27,0,0,0-1.94.19,11.17,11.17,0,0,0-2,.62,10.84,10.84,0,0,0-1.62.84l.34-1.26H179l-6.66,24.14h3.75l2.38-8.65a5,5,0,0,0,1.16.84,6.35,6.35,0,0,0,1.7.62,8.71,8.71,0,0,0,1.84.2,10.71,10.71,0,0,0,3.67-.65,11.77,11.77,0,0,0,3.3-1.84,12.38,12.38,0,0,0,2.61-2.79,11.93,11.93,0,0,0,1.61-3.49,9,9,0,0,0,.31-3.5A6,6,0,0,0,193.57,116.78Zm-3.92,8.36a6.64,6.64,0,0,1-1.44,1.63,7.29,7.29,0,0,1-1.89,1.11,6,6,0,0,1-2.21.41,4.56,4.56,0,0,1-2-.41,3.63,3.63,0,0,1-2.07-2.79,4.71,4.71,0,0,1,.15-2,6.28,6.28,0,0,1,1-2,7.38,7.38,0,0,1,1.59-1.66,7.65,7.65,0,0,1,2-1.13,6.24,6.24,0,0,1,2.22-.41,4.29,4.29,0,0,1,2,.41,3.15,3.15,0,0,1,1.28,1.1,3.36,3.36,0,0,1,.54,1.63,5.65,5.65,0,0,1-.22,2.08A7.8,7.8,0,0,1,189.65,125.14Z"/><path class="cls-1" d="M212,116.78a5.14,5.14,0,0,0-2-1.8,7,7,0,0,0-3.22-.68,9.86,9.86,0,0,0-3.56.67,11.94,11.94,0,0,0-3.16,1.86,12.55,12.55,0,0,0-2.51,2.77A12.24,12.24,0,0,0,196,123a9.81,9.81,0,0,0-.37,3.51,5.85,5.85,0,0,0,1,2.8,5.28,5.28,0,0,0,2.19,1.84,7.48,7.48,0,0,0,3.27.66,11.52,11.52,0,0,0,4.28-.83,11.16,11.16,0,0,0,4-2.78l.63-.67-2.19-2.39-.79.9a6.36,6.36,0,0,1-2.22,1.6,6.46,6.46,0,0,1-2.64.62,3.84,3.84,0,0,1-2.2-.52,3.24,3.24,0,0,1-1.1-1.31,3.47,3.47,0,0,1-.32-1.56c0-.16,0-.31,0-.45h12.45l.62-2.26a8.25,8.25,0,0,0,.29-2.86A5.69,5.69,0,0,0,212,116.78Zm-3,4.12H200.6a7.59,7.59,0,0,1,2.83-2.54,4.92,4.92,0,0,1,2.31-.51,3.67,3.67,0,0,1,1.59.32,2.93,2.93,0,0,1,1.13.87,2.78,2.78,0,0,1,.56,1.26A3,3,0,0,1,209.07,120.9Z"/><path class="cls-1" d="M224.85,114.3a7,7,0,0,0-3.66,1c-.25.15-.5.32-.74.49l.27-1.11H217l-.25.9c-.06.2-.12.5-.21.87s-.71,3.07-.79,3.34l-3.21,11.65h3.74l2.5-9.06a7.77,7.77,0,0,1,.75-1.8,5.77,5.77,0,0,1,1.09-1.35,4.68,4.68,0,0,1,1.43-.87A5.26,5.26,0,0,1,224,118a1.23,1.23,0,0,1,.44.09l1,.33,1.51-3.81-1.32-.29A4.08,4.08,0,0,0,224.85,114.3Z"/><path class="cls-1" d="M237.53,129.18c.08-.42.18-.87.29-1.36l.39-1.6c.15-.58,1.54-5.61,1.54-5.61.6-2.18.39-3.81-.63-4.84a6.1,6.1,0,0,0-4.49-1.47,11.9,11.9,0,0,0-3.5.58,11.13,11.13,0,0,0-3.48,1.78l-.77.59,1.54,2.65.84-.59a7.62,7.62,0,0,1,4.39-1.46,3.52,3.52,0,0,1,2.31.67c.44.39.52,1.06.25,2h-1.37q-1.14,0-2.67.15a13.08,13.08,0,0,0-3.15.71,9,9,0,0,0-3,1.75,6.6,6.6,0,0,0-2,3.31,4.62,4.62,0,0,0-.1,2.48,3.37,3.37,0,0,0,1,1.67,4.16,4.16,0,0,0,1.73.91,7.58,7.58,0,0,0,2.05.28,8.88,8.88,0,0,0,3.81-.79,8,8,0,0,0,1.16-.68c0,.11-.11,1.08-.11,1.08h3.61l.14-1C237.38,130,237.44,129.6,237.53,129.18Zm-7.76-.89a3.1,3.1,0,0,1-.92-.14,2,2,0,0,1-.72-.4,1.2,1.2,0,0,1-.36-.58,1.36,1.36,0,0,1,0-.77,2.08,2.08,0,0,1,.62-1,4.15,4.15,0,0,1,1.35-.79,8.78,8.78,0,0,1,2-.49,17.38,17.38,0,0,1,2.29-.15h1.24l0,.1a9,9,0,0,1-.65,1.65,4.57,4.57,0,0,1-1,1.29,4.93,4.93,0,0,1-1.53.93A6.16,6.16,0,0,1,229.77,128.29Z"/><path class="cls-1" d="M257.49,116a5.31,5.31,0,0,0-1.15-.84,6.68,6.68,0,0,0-1.71-.62,8.71,8.71,0,0,0-1.84-.19,10.81,10.81,0,0,0-3.68.65,11.77,11.77,0,0,0-3.31,1.83,12.93,12.93,0,0,0-2.58,2.79,11.73,11.73,0,0,0-1.61,3.5,9,9,0,0,0-.32,3.49,6.07,6.07,0,0,0,1.05,2.79,5.45,5.45,0,0,0,2.29,1.84,8.07,8.07,0,0,0,3.33.65,10.33,10.33,0,0,0,1.95-.2,10,10,0,0,0,2-.62,11.35,11.35,0,0,0,1.62-.84l-.35,1.27H257l6.81-24.73H260Zm-12.14,7.12a7.4,7.4,0,0,1,.92-2.07,7.14,7.14,0,0,1,1.45-1.64,6.78,6.78,0,0,1,1.88-1.1,5.91,5.91,0,0,1,2.22-.41,4.45,4.45,0,0,1,2,.41,3.79,3.79,0,0,1,1.39,1.13,3.73,3.73,0,0,1,.67,1.66,4.88,4.88,0,0,1-.14,2,6.72,6.72,0,0,1-1,2,7.85,7.85,0,0,1-1.59,1.66,8.08,8.08,0,0,1-2,1.12,6.08,6.08,0,0,1-2.22.42,4.36,4.36,0,0,1-2-.41,3.35,3.35,0,0,1-1.29-1.11,3.5,3.5,0,0,1-.54-1.63A6.08,6.08,0,0,1,245.35,123.07Z"/><path class="cls-1" d="M278.18,116.78a5.62,5.62,0,0,0-2.29-1.83,8,8,0,0,0-3.31-.65,10.82,10.82,0,0,0-3.69.65,11.91,11.91,0,0,0-3.31,1.83,12.44,12.44,0,0,0-2.57,2.79,11.76,11.76,0,0,0-1.62,3.5,8.94,8.94,0,0,0-.31,3.49,6.17,6.17,0,0,0,1,2.79,5.51,5.51,0,0,0,2.29,1.84,8.11,8.11,0,0,0,3.33.65,10.73,10.73,0,0,0,3.68-.65,11.86,11.86,0,0,0,3.29-1.84,12.16,12.16,0,0,0,2.61-2.79,11.93,11.93,0,0,0,1.61-3.49,8.8,8.8,0,0,0,.31-3.5A6,6,0,0,0,278.18,116.78Zm-3.92,8.36a6.79,6.79,0,0,1-1.43,1.63,7.18,7.18,0,0,1-1.9,1.11,6,6,0,0,1-2.21.41,4.39,4.39,0,0,1-2-.41,3.24,3.24,0,0,1-1.28-1.11,3.4,3.4,0,0,1-.55-1.63,5.86,5.86,0,0,1,.23-2.07,7.4,7.4,0,0,1,.92-2.07,6.79,6.79,0,0,1,3.33-2.74,5.83,5.83,0,0,1,2.21-.41,4.31,4.31,0,0,1,2,.41,3.28,3.28,0,0,1,1.28,1.1,3.47,3.47,0,0,1,.54,1.63,6.13,6.13,0,0,1-.22,2.08A7.87,7.87,0,0,1,274.26,125.14Z"/><path class="cls-1" d="M291.46,114.3a7,7,0,0,0-3.66,1c-.25.15-.5.32-.74.49l.27-1.11h-3.71l-.25.9q-.09.31-.21.87s-.72,3.07-.79,3.34l-3.21,11.65h3.74l2.5-9.06a7.59,7.59,0,0,1,.75-1.8,5.52,5.52,0,0,1,1.09-1.35,4.68,4.68,0,0,1,1.43-.87,5.22,5.22,0,0,1,1.92-.33,1.28,1.28,0,0,1,.44.09l1,.33,1.5-3.81-1.32-.29A3.88,3.88,0,0,0,291.46,114.3Z"/><polygon class="cls-1" points="298.69 131.45 302.43 131.45 309.25 106.72 305.5 106.72 298.69 131.45"/><path class="cls-1" d="M324.39,116.78A5.62,5.62,0,0,0,322.1,115a8,8,0,0,0-3.31-.65,10.82,10.82,0,0,0-3.69.65,11.91,11.91,0,0,0-3.31,1.83,12.72,12.72,0,0,0-2.58,2.79,12,12,0,0,0-1.61,3.5,8.94,8.94,0,0,0-.31,3.49,6.17,6.17,0,0,0,1,2.79,5.51,5.51,0,0,0,2.29,1.84,8.11,8.11,0,0,0,3.33.65,10.73,10.73,0,0,0,3.68-.65,11.86,11.86,0,0,0,3.29-1.84,12.16,12.16,0,0,0,2.61-2.79,11.93,11.93,0,0,0,1.61-3.49,8.8,8.8,0,0,0,.31-3.5A6,6,0,0,0,324.39,116.78Zm-3.92,8.36a6.62,6.62,0,0,1-1.44,1.63,7,7,0,0,1-1.89,1.11,6,6,0,0,1-2.21.41,4.39,4.39,0,0,1-2-.41,3.24,3.24,0,0,1-1.28-1.11,3.4,3.4,0,0,1-.55-1.63,5.86,5.86,0,0,1,.23-2.07,7.67,7.67,0,0,1,.91-2.07,7.14,7.14,0,0,1,1.45-1.64,6.84,6.84,0,0,1,1.89-1.1,5.83,5.83,0,0,1,2.21-.41,4.31,4.31,0,0,1,2,.41,3.28,3.28,0,0,1,1.28,1.1,3.58,3.58,0,0,1,.54,1.63,6.13,6.13,0,0,1-.22,2.08A7.87,7.87,0,0,1,320.47,125.14Z"/><path class="cls-1" d="M342.75,115.85a5.41,5.41,0,0,0-.83-.67,6.67,6.67,0,0,0-3.57-.88,10.38,10.38,0,0,0-3.65.68,13.62,13.62,0,0,0-3.32,1.83,13.14,13.14,0,0,0-2.66,2.71,10.44,10.44,0,0,0-1.64,3.35,7.76,7.76,0,0,0-.21,3.35,6.22,6.22,0,0,0,1.16,2.72,6.05,6.05,0,0,0,2.32,1.84,7.8,7.8,0,0,0,3.27.67,9.45,9.45,0,0,0,4.06-.89,12.64,12.64,0,0,0,1.2-.66c-.07.23-.16.52-.27.86a8.4,8.4,0,0,1-.54,1.28,9,9,0,0,1-.85,1.33,6,6,0,0,1-1.16,1.14,5.68,5.68,0,0,1-1.61.83,7.1,7.1,0,0,1-2.29.33,6.07,6.07,0,0,1-2.77-.61,3.47,3.47,0,0,1-1.72-1.83l-.36-.84-3.62,2.69.33.65a5.33,5.33,0,0,0,1.14,1.5,6.48,6.48,0,0,0,1.65,1.09,8.65,8.65,0,0,0,2.05.67,11.65,11.65,0,0,0,2.33.23,13.6,13.6,0,0,0,2.82-.35,10.12,10.12,0,0,0,3.35-1.43,11.92,11.92,0,0,0,3.11-3,14.73,14.73,0,0,0,2.24-4.88l4.11-14.89h-3.75Zm-11.92,7a6.11,6.11,0,0,1,.94-2,7.33,7.33,0,0,1,3.4-2.67,5.79,5.79,0,0,1,2.07-.39,4.19,4.19,0,0,1,1.85.39,3.53,3.53,0,0,1,1.3,1.07,3.67,3.67,0,0,1,.64,1.6,4.76,4.76,0,0,1-.15,2,6.41,6.41,0,0,1-.93,2,7.72,7.72,0,0,1-1.52,1.6,7.2,7.2,0,0,1-1.89,1.07,5.6,5.6,0,0,1-2.07.4,4.06,4.06,0,0,1-1.85-.4,3.46,3.46,0,0,1-1.31-1.07,3.74,3.74,0,0,1-.63-1.6A4.78,4.78,0,0,1,330.83,122.87Z"/><polygon class="cls-1" points="345.47 131.45 349.22 131.45 353.84 114.69 350.09 114.69 345.47 131.45"/><polygon class="cls-1" points="360.31 106.72 355.19 106.72 348.74 113.19 352.52 113.19 360.31 106.72"/><path class="cls-1" d="M364.28,121.87a7.68,7.68,0,0,0-2.17-.7,16.42,16.42,0,0,1-1.91-.44,3.12,3.12,0,0,1-1.18-.62c-.11-.1-.21-.28-.08-.77a1.16,1.16,0,0,1,.29-.52,2.57,2.57,0,0,1,.65-.5,3.77,3.77,0,0,1,.87-.35,3.62,3.62,0,0,1,.87-.12,2.52,2.52,0,0,1,1.56.39,2.16,2.16,0,0,1,.73,1.23l.21.84,3.83-2-.18-.76a3.81,3.81,0,0,0-1.79-2.53,6.66,6.66,0,0,0-3.38-.77,8.64,8.64,0,0,0-2.17.29,8.19,8.19,0,0,0-2.18.93,7.91,7.91,0,0,0-1.89,1.64,6.26,6.26,0,0,0-1.21,2.35,3.63,3.63,0,0,0,.11,2.78,3.75,3.75,0,0,0,1.55,1.45,7.45,7.45,0,0,0,2.15.71,18.32,18.32,0,0,1,1.91.48,2.88,2.88,0,0,1,1.16.66c.1.1.23.31.08.84a1.6,1.6,0,0,1-.37.69,2.73,2.73,0,0,1-.71.59,4.14,4.14,0,0,1-1,.43,3.72,3.72,0,0,1-3-.38,2.25,2.25,0,0,1-1-1.45l-.21-.9-3.85,2.2.21.72a4.24,4.24,0,0,0,2.14,2.68,7.83,7.83,0,0,0,3.7.83,9.11,9.11,0,0,0,2.38-.33,8.55,8.55,0,0,0,2.31-1,7.63,7.63,0,0,0,1.93-1.74,6.85,6.85,0,0,0,1.21-2.43,4,4,0,0,0-.06-2.92A3.56,3.56,0,0,0,364.28,121.87Z"/><path class="cls-1" d="M375.57,127.85a9.59,9.59,0,0,1-1,.32,3.81,3.81,0,0,1-.92.12c-.6,0-.75-.22-.81-.29a1.07,1.07,0,0,1,0-.92l2.44-8.84h4.27l1-3.55h-4.27l1.18-4.31h-3.74l-1.19,4.31H369.2l-1,3.55h3.23L369,127.08a6,6,0,0,0-.23,1.76,3.13,3.13,0,0,0,.42,1.56,2.73,2.73,0,0,0,1.24,1.06,4.82,4.82,0,0,0,2,.38,7,7,0,0,0,1.51-.19,13.67,13.67,0,0,0,1.48-.39l.72-.23.67-3.7Z"/><polygon class="cls-1" points="377.86 131.45 381.6 131.45 386.22 114.69 382.48 114.69 377.86 131.45"/><path class="cls-1" d="M386.39,107.3a3,3,0,0,0-1.87.69,3.25,3.25,0,0,0-1.14,1.67,1.9,1.9,0,0,0,.22,1.67,1.75,1.75,0,0,0,1.49.69,3,3,0,0,0,1.86-.69,3.12,3.12,0,0,0,1.14-1.67,1.94,1.94,0,0,0-.22-1.68A1.77,1.77,0,0,0,386.39,107.3Z"/><path class="cls-1" d="M397.89,126.56a7.27,7.27,0,0,1-1.85,1.27,4.29,4.29,0,0,1-1.94.46,4.42,4.42,0,0,1-2-.41,3.24,3.24,0,0,1-1.28-1.11,3.29,3.29,0,0,1-.54-1.63,5.79,5.79,0,0,1,.22-2.07,7.73,7.73,0,0,1,.92-2.08,7,7,0,0,1,1.44-1.63,6.74,6.74,0,0,1,1.89-1.1,5.83,5.83,0,0,1,2.21-.41,3,3,0,0,1,1.63.43,3.89,3.89,0,0,1,1.25,1.27l.38.62,3.62-2.25-.46-.73a5.88,5.88,0,0,0-2.2-2.12,6.61,6.61,0,0,0-3.24-.77,10.82,10.82,0,0,0-3.69.65,11.71,11.71,0,0,0-3.3,1.83,12.72,12.72,0,0,0-2.58,2.79,11.76,11.76,0,0,0-1.62,3.5,8.94,8.94,0,0,0-.31,3.49,6.13,6.13,0,0,0,1,2.79,5.51,5.51,0,0,0,2.29,1.84,8.12,8.12,0,0,0,3.34.65,9.42,9.42,0,0,0,3.58-.72,11.69,11.69,0,0,0,3.42-2.2l.76-.7-2.23-2.38Z"/><path class="cls-1" d="M420.2,119.57a6,6,0,0,0-1.06-2.79,5.62,5.62,0,0,0-2.29-1.83,8,8,0,0,0-3.32-.65,10.81,10.81,0,0,0-3.68.65,11.91,11.91,0,0,0-3.31,1.83,12.72,12.72,0,0,0-2.58,2.79,11.73,11.73,0,0,0-1.61,3.5,9,9,0,0,0-.32,3.49,6,6,0,0,0,1.05,2.79,5.51,5.51,0,0,0,2.29,1.84,8,8,0,0,0,3.33.65,10.71,10.71,0,0,0,3.67-.65,11.77,11.77,0,0,0,3.3-1.84,12.34,12.34,0,0,0,2.6-2.79,11.7,11.7,0,0,0,1.62-3.49A9,9,0,0,0,420.2,119.57Zm-5,5.57a6.85,6.85,0,0,1-1.44,1.63,7,7,0,0,1-1.89,1.11,6,6,0,0,1-2.21.41,4.44,4.44,0,0,1-2-.41,3.24,3.24,0,0,1-1.28-1.11,3.5,3.5,0,0,1-.54-1.63,6,6,0,0,1,.22-2.07A7.73,7.73,0,0,1,407,121a7.26,7.26,0,0,1,1.44-1.63,6.93,6.93,0,0,1,1.9-1.1,5.83,5.83,0,0,1,2.21-.41,4.29,4.29,0,0,1,2,.41,3.14,3.14,0,0,1,1.28,1.1,3.36,3.36,0,0,1,.54,1.64,5.66,5.66,0,0,1-.22,2.07A7.4,7.4,0,0,1,415.22,125.14Z"/><path class="cls-2" d="M185,22.32h19.75c16.24,0,32.43,1.89,30.69,22.59-1.72,20.47-17.66,30.82-35.5,30.82H189.83l-7.93,28.7H162.15Zm9.13,37.88h5.31c7.85,0,15.23-3.06,16.05-12.82.66-7.88-4.09-9.53-9.39-9.53h-5.85Z"/><path class="cls-2" d="M243.2,16.2h19.33l-24,88.23H219.22Z"/><path class="cls-2" d="M301.78,88.43c-1.4,5.3-2.69,10.47-3.68,16H280.37l2.32-10h-.21c-6.09,6.81-12.21,11.41-22.3,11.41-11.15,0-16.43-9.18-15.42-21.18.34-4.12.86-6.47,2.57-12.94l7.5-28.59h19.75l-7.72,28.71a55.84,55.84,0,0,0-2.05,9.29c-.31,3.64,1.5,7.29,6.83,7.06,8.07,0,13.5-7.77,15.65-16.82l7.79-28.24h19.11Z"/><path class="cls-2" d="M305.11,89.4a34.29,34.29,0,0,0,12.51,2.33c3.09,0,10.76-.36,11.18-5.41.74-8.71-22.47-4.24-20.77-24.47,1.21-14.35,16.77-20.11,29.62-20.11a55.23,55.23,0,0,1,18.06,3.64l-7.34,12.93a32.79,32.79,0,0,0-12.86-2.46c-4.25,0-9,1.06-9.37,5.29-.57,6.82,23.36,6.35,22.07,21.77-1.28,15.17-13.49,22.7-27.84,22.94a77.11,77.11,0,0,1-23-3.18Z"/><path class="cls-2" d="M365.75,16.2h19.32l-24,88.23H341.76Z"/><path class="cls-2" d="M395.05,105.85c-20.5,0-27.72-12.59-26.42-28,1.81-21.53,17.05-36.11,38.71-36.11,18.8,0,27.77,12,26.47,27.4C431.66,94.67,415.75,105.85,395.05,105.85Zm10.09-49.3c-9.24,0-15.91,11.06-16.73,20.82-.69,8.24,2.78,13.77,9.27,13.65,8.92,0,15.23-8.23,16.4-22.11C414.61,62.56,412.57,56.55,405.14,56.55Z"/><path class="cls-2" d="M501.86,43.14h19.33l-16.62,61.29H488.86l10-50.21Zm7-25.52h19.33l-4.28,15.53H504.61Z"/><path class="cls-2" d="M512.06,89.4a34.25,34.25,0,0,0,12.51,2.33c3.08,0,10.76-.36,11.18-5.41.73-8.71-22.47-4.24-20.77-24.47,1.21-14.35,16.77-20.11,29.62-20.11a55.28,55.28,0,0,1,18.06,3.64l-7.34,12.93a32.88,32.88,0,0,0-12.87-2.46c-4.24,0-9,1.06-9.36,5.29-.57,6.82,23.36,6.35,22.06,21.77-1.27,15.17-13.48,22.7-27.83,22.94a77,77,0,0,1-23-3.18Z"/><path class="cls-2" d="M580,85.61c.25-2.94,1.25-6,2.48-10.59l4.73-17h12.11l5.38-14.83H591.57L597,24l-20.68,6-3.76,13.17H562.25l-4,14.83h10L563.5,75.14c-1.82,6.47-2.5,9.53-2.76,12.59-1.08,12.82,6.23,18.12,16,18.12A70,70,0,0,0,588,104.77l3.8-14a17.85,17.85,0,0,1-6.1,1.68C581.9,92.43,579.68,89.72,580,85.61Z"/><path class="cls-2" d="M604.66,43.14H624l-16.63,61.29h-15.7l11-54Zm7-25.52H631l-4.28,15.53H607.41Z"/><path class="cls-2" d="M655.32,103.49c-3.94,1.41-9.12,2.36-16.54,2.36-16.15,0-25.07-12.59-23.78-28,1.69-20.12,17.48-36.11,38.72-36.11a44.13,44.13,0,0,1,17.07,4.11l-5.38,14.7a25.73,25.73,0,0,0-12-3.29c-9.88,0-17.48,7.06-18.55,19.77-.61,7.29,4,13.29,12,13.29a28.56,28.56,0,0,0,12.55-2.71Z"/><path class="cls-2" d="M661.94,89.4a34.29,34.29,0,0,0,12.51,2.33c3.09,0,10.76-.36,11.18-5.41.74-8.71-22.47-4.24-20.77-24.47,1.21-14.35,16.77-20.11,29.62-20.11a55.23,55.23,0,0,1,18.06,3.64L705.2,58.31a32.79,32.79,0,0,0-12.86-2.46c-4.25,0-9,1.06-9.37,5.29C682.4,68,706.34,67.49,705,82.91c-1.28,15.17-13.49,22.7-27.84,22.94a77.11,77.11,0,0,1-23-3.18Z"/><path class="cls-2" d="M485.86,43.14l-3.38,11.18h-.21c-2.45-8.82-9.67-12.58-18.06-12.58-17.83,0-30.95,15.87-32.55,34.81-1.36,16.23,5.09,27.88,20.27,27.88,7.54,0,14.13-3.88,18.95-10.7l.2.23c-4.29,15.65-9.58,20.58-22.93,20.34h-24a8.63,8.63,0,0,1,1.1,1.16,8.27,8.27,0,0,1,1.47,3.83,11,11,0,0,1-.38,4.38,14.07,14.07,0,0,1-1.92,4.16,14.35,14.35,0,0,1-3.07,3.29c-.34.27-.71.48-1.07.72h25.19c22.94,0,34.52-8.47,41.4-32.23L502,43.14ZM476,69c-.67,8-5.86,19.18-15.63,19.18-6.05,0-9.57-4.94-9-11.29.72-8.59,5.84-18.94,15.4-18.94C473.47,58,476.59,62.56,476,69Z"/><path class="cls-1" d="M173.78,116.78A5.66,5.66,0,0,0,171.5,115a8,8,0,0,0-3.32-.65,10.77,10.77,0,0,0-3.68.65,11.77,11.77,0,0,0-3.31,1.83,12.69,12.69,0,0,0-2.58,2.79,11.76,11.76,0,0,0-1.62,3.5,8.94,8.94,0,0,0-.31,3.49,6.17,6.17,0,0,0,1,2.79,5.48,5.48,0,0,0,2.3,1.84,8,8,0,0,0,3.33.65,10.71,10.71,0,0,0,3.67-.65,11.77,11.77,0,0,0,3.3-1.84,12.57,12.57,0,0,0,2.6-2.79,11.68,11.68,0,0,0,1.61-3.49,9,9,0,0,0,.32-3.5A6,6,0,0,0,173.78,116.78Zm-3.91,8.36a6.93,6.93,0,0,1-3.33,2.74,6.12,6.12,0,0,1-2.22.41,4.42,4.42,0,0,1-2-.41,3.24,3.24,0,0,1-1.28-1.11,3.29,3.29,0,0,1-.54-1.63,5.84,5.84,0,0,1,.22-2.07,7.4,7.4,0,0,1,.92-2.07,7.1,7.1,0,0,1,1.44-1.64,6.84,6.84,0,0,1,1.89-1.1,5.83,5.83,0,0,1,2.21-.41,4.31,4.31,0,0,1,2,.41,3.28,3.28,0,0,1,1.28,1.1A3.58,3.58,0,0,1,171,121a6.13,6.13,0,0,1-.22,2.08A7.53,7.53,0,0,1,169.87,125.14Z"/><path class="cls-1" d="M193.57,116.78a5.7,5.7,0,0,0-2.29-1.83,8,8,0,0,0-3.32-.65,10.27,10.27,0,0,0-1.94.19,11.17,11.17,0,0,0-2,.62,10.84,10.84,0,0,0-1.62.84l.34-1.26H179l-6.66,24.14h3.75l2.38-8.65a5,5,0,0,0,1.16.84,6.35,6.35,0,0,0,1.7.62,8.71,8.71,0,0,0,1.84.2,10.71,10.71,0,0,0,3.67-.65,11.77,11.77,0,0,0,3.3-1.84,12.38,12.38,0,0,0,2.61-2.79,11.93,11.93,0,0,0,1.61-3.49,9,9,0,0,0,.31-3.5A6,6,0,0,0,193.57,116.78Zm-3.92,8.36a6.64,6.64,0,0,1-1.44,1.63,7.29,7.29,0,0,1-1.89,1.11,6,6,0,0,1-2.21.41,4.56,4.56,0,0,1-2-.41,3.63,3.63,0,0,1-2.07-2.79,4.71,4.71,0,0,1,.15-2,6.28,6.28,0,0,1,1-2,7.38,7.38,0,0,1,1.59-1.66,7.65,7.65,0,0,1,2-1.13,6.24,6.24,0,0,1,2.22-.41,4.29,4.29,0,0,1,2,.41,3.15,3.15,0,0,1,1.28,1.1,3.36,3.36,0,0,1,.54,1.63,5.65,5.65,0,0,1-.22,2.08A7.8,7.8,0,0,1,189.65,125.14Z"/><path class="cls-1" d="M212,116.78a5.14,5.14,0,0,0-2-1.8,7,7,0,0,0-3.22-.68,9.86,9.86,0,0,0-3.56.67,11.94,11.94,0,0,0-3.16,1.86,12.55,12.55,0,0,0-2.51,2.77A12.24,12.24,0,0,0,196,123a9.81,9.81,0,0,0-.37,3.51,5.85,5.85,0,0,0,1,2.8,5.28,5.28,0,0,0,2.19,1.84,7.48,7.48,0,0,0,3.27.66,11.52,11.52,0,0,0,4.28-.83,11.16,11.16,0,0,0,4-2.78l.63-.67-2.19-2.39-.79.9a6.36,6.36,0,0,1-2.22,1.6,6.46,6.46,0,0,1-2.64.62,3.84,3.84,0,0,1-2.2-.52,3.24,3.24,0,0,1-1.1-1.31,3.47,3.47,0,0,1-.32-1.56c0-.16,0-.31,0-.45h12.45l.62-2.26a8.25,8.25,0,0,0,.29-2.86A5.69,5.69,0,0,0,212,116.78Zm-3,4.12H200.6a7.59,7.59,0,0,1,2.83-2.54,4.92,4.92,0,0,1,2.31-.51,3.67,3.67,0,0,1,1.59.32,2.93,2.93,0,0,1,1.13.87,2.78,2.78,0,0,1,.56,1.26A3,3,0,0,1,209.07,120.9Z"/><path class="cls-1" d="M224.85,114.3a7,7,0,0,0-3.66,1c-.25.15-.5.32-.74.49l.27-1.11H217l-.25.9c-.06.2-.12.5-.21.87s-.71,3.07-.79,3.34l-3.21,11.65h3.74l2.5-9.06a7.77,7.77,0,0,1,.75-1.8,5.77,5.77,0,0,1,1.09-1.35,4.68,4.68,0,0,1,1.43-.87A5.26,5.26,0,0,1,224,118a1.23,1.23,0,0,1,.44.09l1,.33,1.51-3.81-1.32-.29A4.08,4.08,0,0,0,224.85,114.3Z"/><path class="cls-1" d="M237.53,129.18c.08-.42.18-.87.29-1.36l.39-1.6c.15-.58,1.54-5.61,1.54-5.61.6-2.18.39-3.81-.63-4.84a6.1,6.1,0,0,0-4.49-1.47,11.9,11.9,0,0,0-3.5.58,11.13,11.13,0,0,0-3.48,1.78l-.77.59,1.54,2.65.84-.59a7.62,7.62,0,0,1,4.39-1.46,3.52,3.52,0,0,1,2.31.67c.44.39.52,1.06.25,2h-1.37q-1.14,0-2.67.15a13.08,13.08,0,0,0-3.15.71,9,9,0,0,0-3,1.75,6.6,6.6,0,0,0-2,3.31,4.62,4.62,0,0,0-.1,2.48,3.37,3.37,0,0,0,1,1.67,4.16,4.16,0,0,0,1.73.91,7.58,7.58,0,0,0,2.05.28,8.88,8.88,0,0,0,3.81-.79,8,8,0,0,0,1.16-.68c0,.11-.11,1.08-.11,1.08h3.61l.14-1C237.38,130,237.44,129.6,237.53,129.18Zm-7.76-.89a3.1,3.1,0,0,1-.92-.14,2,2,0,0,1-.72-.4,1.2,1.2,0,0,1-.36-.58,1.36,1.36,0,0,1,0-.77,2.08,2.08,0,0,1,.62-1,4.15,4.15,0,0,1,1.35-.79,8.78,8.78,0,0,1,2-.49,17.38,17.38,0,0,1,2.29-.15h1.24l0,.1a9,9,0,0,1-.65,1.65,4.57,4.57,0,0,1-1,1.29,4.93,4.93,0,0,1-1.53.93A6.16,6.16,0,0,1,229.77,128.29Z"/><path class="cls-1" d="M257.49,116a5.31,5.31,0,0,0-1.15-.84,6.68,6.68,0,0,0-1.71-.62,8.71,8.71,0,0,0-1.84-.19,10.81,10.81,0,0,0-3.68.65,11.77,11.77,0,0,0-3.31,1.83,12.93,12.93,0,0,0-2.58,2.79,11.73,11.73,0,0,0-1.61,3.5,9,9,0,0,0-.32,3.49,6.07,6.07,0,0,0,1.05,2.79,5.45,5.45,0,0,0,2.29,1.84,8.07,8.07,0,0,0,3.33.65,10.33,10.33,0,0,0,1.95-.2,10,10,0,0,0,2-.62,11.35,11.35,0,0,0,1.62-.84l-.35,1.27H257l6.81-24.73H260Zm-12.14,7.12a7.4,7.4,0,0,1,.92-2.07,7.14,7.14,0,0,1,1.45-1.64,6.78,6.78,0,0,1,1.88-1.1,5.91,5.91,0,0,1,2.22-.41,4.45,4.45,0,0,1,2,.41,3.79,3.79,0,0,1,1.39,1.13,3.73,3.73,0,0,1,.67,1.66,4.88,4.88,0,0,1-.14,2,6.72,6.72,0,0,1-1,2,7.85,7.85,0,0,1-1.59,1.66,8.08,8.08,0,0,1-2,1.12,6.08,6.08,0,0,1-2.22.42,4.36,4.36,0,0,1-2-.41,3.35,3.35,0,0,1-1.29-1.11,3.5,3.5,0,0,1-.54-1.63A6.08,6.08,0,0,1,245.35,123.07Z"/><path class="cls-1" d="M278.18,116.78a5.62,5.62,0,0,0-2.29-1.83,8,8,0,0,0-3.31-.65,10.82,10.82,0,0,0-3.69.65,11.91,11.91,0,0,0-3.31,1.83,12.44,12.44,0,0,0-2.57,2.79,11.76,11.76,0,0,0-1.62,3.5,8.94,8.94,0,0,0-.31,3.49,6.17,6.17,0,0,0,1,2.79,5.51,5.51,0,0,0,2.29,1.84,8.11,8.11,0,0,0,3.33.65,10.73,10.73,0,0,0,3.68-.65,11.86,11.86,0,0,0,3.29-1.84,12.16,12.16,0,0,0,2.61-2.79,11.93,11.93,0,0,0,1.61-3.49,8.8,8.8,0,0,0,.31-3.5A6,6,0,0,0,278.18,116.78Zm-3.92,8.36a6.79,6.79,0,0,1-1.43,1.63,7.18,7.18,0,0,1-1.9,1.11,6,6,0,0,1-2.21.41,4.39,4.39,0,0,1-2-.41,3.24,3.24,0,0,1-1.28-1.11,3.4,3.4,0,0,1-.55-1.63,5.86,5.86,0,0,1,.23-2.07,7.4,7.4,0,0,1,.92-2.07,6.79,6.79,0,0,1,3.33-2.74,5.83,5.83,0,0,1,2.21-.41,4.31,4.31,0,0,1,2,.41,3.28,3.28,0,0,1,1.28,1.1,3.47,3.47,0,0,1,.54,1.63,6.13,6.13,0,0,1-.22,2.08A7.87,7.87,0,0,1,274.26,125.14Z"/><path class="cls-1" d="M291.46,114.3a7,7,0,0,0-3.66,1c-.25.15-.5.32-.74.49l.27-1.11h-3.71l-.25.9q-.09.31-.21.87s-.72,3.07-.79,3.34l-3.21,11.65h3.74l2.5-9.06a7.59,7.59,0,0,1,.75-1.8,5.52,5.52,0,0,1,1.09-1.35,4.68,4.68,0,0,1,1.43-.87,5.22,5.22,0,0,1,1.92-.33,1.28,1.28,0,0,1,.44.09l1,.33,1.5-3.81-1.32-.29A3.88,3.88,0,0,0,291.46,114.3Z"/><polygon class="cls-1" points="298.69 131.45 302.43 131.45 309.25 106.72 305.5 106.72 298.69 131.45"/><path class="cls-1" d="M324.39,116.78A5.62,5.62,0,0,0,322.1,115a8,8,0,0,0-3.31-.65,10.82,10.82,0,0,0-3.69.65,11.91,11.91,0,0,0-3.31,1.83,12.72,12.72,0,0,0-2.58,2.79,12,12,0,0,0-1.61,3.5,8.94,8.94,0,0,0-.31,3.49,6.17,6.17,0,0,0,1,2.79,5.51,5.51,0,0,0,2.29,1.84,8.11,8.11,0,0,0,3.33.65,10.73,10.73,0,0,0,3.68-.65,11.86,11.86,0,0,0,3.29-1.84,12.16,12.16,0,0,0,2.61-2.79,11.93,11.93,0,0,0,1.61-3.49,8.8,8.8,0,0,0,.31-3.5A6,6,0,0,0,324.39,116.78Zm-3.92,8.36a6.62,6.62,0,0,1-1.44,1.63,7,7,0,0,1-1.89,1.11,6,6,0,0,1-2.21.41,4.39,4.39,0,0,1-2-.41,3.24,3.24,0,0,1-1.28-1.11,3.4,3.4,0,0,1-.55-1.63,5.86,5.86,0,0,1,.23-2.07,7.67,7.67,0,0,1,.91-2.07,7.14,7.14,0,0,1,1.45-1.64,6.84,6.84,0,0,1,1.89-1.1,5.83,5.83,0,0,1,2.21-.41,4.31,4.31,0,0,1,2,.41,3.28,3.28,0,0,1,1.28,1.1,3.58,3.58,0,0,1,.54,1.63,6.13,6.13,0,0,1-.22,2.08A7.87,7.87,0,0,1,320.47,125.14Z"/><path class="cls-1" d="M342.75,115.85a5.41,5.41,0,0,0-.83-.67,6.67,6.67,0,0,0-3.57-.88,10.38,10.38,0,0,0-3.65.68,13.62,13.62,0,0,0-3.32,1.83,13.14,13.14,0,0,0-2.66,2.71,10.44,10.44,0,0,0-1.64,3.35,7.76,7.76,0,0,0-.21,3.35,6.22,6.22,0,0,0,1.16,2.72,6.05,6.05,0,0,0,2.32,1.84,7.8,7.8,0,0,0,3.27.67,9.45,9.45,0,0,0,4.06-.89,12.64,12.64,0,0,0,1.2-.66c-.07.23-.16.52-.27.86a8.4,8.4,0,0,1-.54,1.28,9,9,0,0,1-.85,1.33,6,6,0,0,1-1.16,1.14,5.68,5.68,0,0,1-1.61.83,7.1,7.1,0,0,1-2.29.33,6.07,6.07,0,0,1-2.77-.61,3.47,3.47,0,0,1-1.72-1.83l-.36-.84-3.62,2.69.33.65a5.33,5.33,0,0,0,1.14,1.5,6.48,6.48,0,0,0,1.65,1.09,8.65,8.65,0,0,0,2.05.67,11.65,11.65,0,0,0,2.33.23,13.6,13.6,0,0,0,2.82-.35,10.12,10.12,0,0,0,3.35-1.43,11.92,11.92,0,0,0,3.11-3,14.73,14.73,0,0,0,2.24-4.88l4.11-14.89h-3.75Zm-11.92,7a6.11,6.11,0,0,1,.94-2,7.33,7.33,0,0,1,3.4-2.67,5.79,5.79,0,0,1,2.07-.39,4.19,4.19,0,0,1,1.85.39,3.53,3.53,0,0,1,1.3,1.07,3.67,3.67,0,0,1,.64,1.6,4.76,4.76,0,0,1-.15,2,6.41,6.41,0,0,1-.93,2,7.72,7.72,0,0,1-1.52,1.6,7.2,7.2,0,0,1-1.89,1.07,5.6,5.6,0,0,1-2.07.4,4.06,4.06,0,0,1-1.85-.4,3.46,3.46,0,0,1-1.31-1.07,3.74,3.74,0,0,1-.63-1.6A4.78,4.78,0,0,1,330.83,122.87Z"/><polygon class="cls-1" points="345.47 131.45 349.22 131.45 353.84 114.69 350.09 114.69 345.47 131.45"/><polygon class="cls-1" points="360.31 106.72 355.19 106.72 348.74 113.19 352.52 113.19 360.31 106.72"/><path class="cls-1" d="M364.28,121.87a7.68,7.68,0,0,0-2.17-.7,16.42,16.42,0,0,1-1.91-.44,3.12,3.12,0,0,1-1.18-.62c-.11-.1-.21-.28-.08-.77a1.16,1.16,0,0,1,.29-.52,2.57,2.57,0,0,1,.65-.5,3.77,3.77,0,0,1,.87-.35,3.62,3.62,0,0,1,.87-.12,2.52,2.52,0,0,1,1.56.39,2.16,2.16,0,0,1,.73,1.23l.21.84,3.83-2-.18-.76a3.81,3.81,0,0,0-1.79-2.53,6.66,6.66,0,0,0-3.38-.77,8.64,8.64,0,0,0-2.17.29,8.19,8.19,0,0,0-2.18.93,7.91,7.91,0,0,0-1.89,1.64,6.26,6.26,0,0,0-1.21,2.35,3.63,3.63,0,0,0,.11,2.78,3.75,3.75,0,0,0,1.55,1.45,7.45,7.45,0,0,0,2.15.71,18.32,18.32,0,0,1,1.91.48,2.88,2.88,0,0,1,1.16.66c.1.1.23.31.08.84a1.6,1.6,0,0,1-.37.69,2.73,2.73,0,0,1-.71.59,4.14,4.14,0,0,1-1,.43,3.72,3.72,0,0,1-3-.38,2.25,2.25,0,0,1-1-1.45l-.21-.9-3.85,2.2.21.72a4.24,4.24,0,0,0,2.14,2.68,7.83,7.83,0,0,0,3.7.83,9.11,9.11,0,0,0,2.38-.33,8.55,8.55,0,0,0,2.31-1,7.63,7.63,0,0,0,1.93-1.74,6.85,6.85,0,0,0,1.21-2.43,4,4,0,0,0-.06-2.92A3.56,3.56,0,0,0,364.28,121.87Z"/><path class="cls-1" d="M375.57,127.85a9.59,9.59,0,0,1-1,.32,3.81,3.81,0,0,1-.92.12c-.6,0-.75-.22-.81-.29a1.07,1.07,0,0,1,0-.92l2.44-8.84h4.27l1-3.55h-4.27l1.18-4.31h-3.74l-1.19,4.31H369.2l-1,3.55h3.23L369,127.08a6,6,0,0,0-.23,1.76,3.13,3.13,0,0,0,.42,1.56,2.73,2.73,0,0,0,1.24,1.06,4.82,4.82,0,0,0,2,.38,7,7,0,0,0,1.51-.19,13.67,13.67,0,0,0,1.48-.39l.72-.23.67-3.7Z"/><polygon class="cls-1" points="377.86 131.45 381.6 131.45 386.22 114.69 382.48 114.69 377.86 131.45"/><path class="cls-1" d="M386.39,107.3a3,3,0,0,0-1.87.69,3.25,3.25,0,0,0-1.14,1.67,1.9,1.9,0,0,0,.22,1.67,1.75,1.75,0,0,0,1.49.69,3,3,0,0,0,1.86-.69,3.12,3.12,0,0,0,1.14-1.67,1.94,1.94,0,0,0-.22-1.68A1.77,1.77,0,0,0,386.39,107.3Z"/><path class="cls-1" d="M397.89,126.56a7.27,7.27,0,0,1-1.85,1.27,4.29,4.29,0,0,1-1.94.46,4.42,4.42,0,0,1-2-.41,3.24,3.24,0,0,1-1.28-1.11,3.29,3.29,0,0,1-.54-1.63,5.79,5.79,0,0,1,.22-2.07,7.73,7.73,0,0,1,.92-2.08,7,7,0,0,1,1.44-1.63,6.74,6.74,0,0,1,1.89-1.1,5.83,5.83,0,0,1,2.21-.41,3,3,0,0,1,1.63.43,3.89,3.89,0,0,1,1.25,1.27l.38.62,3.62-2.25-.46-.73a5.88,5.88,0,0,0-2.2-2.12,6.61,6.61,0,0,0-3.24-.77,10.82,10.82,0,0,0-3.69.65,11.71,11.71,0,0,0-3.3,1.83,12.72,12.72,0,0,0-2.58,2.79,11.76,11.76,0,0,0-1.62,3.5,8.94,8.94,0,0,0-.31,3.49,6.13,6.13,0,0,0,1,2.79,5.51,5.51,0,0,0,2.29,1.84,8.12,8.12,0,0,0,3.34.65,9.42,9.42,0,0,0,3.58-.72,11.69,11.69,0,0,0,3.42-2.2l.76-.7-2.23-2.38Z"/><path class="cls-1" d="M420.2,119.57a6,6,0,0,0-1.06-2.79,5.62,5.62,0,0,0-2.29-1.83,8,8,0,0,0-3.32-.65,10.81,10.81,0,0,0-3.68.65,11.91,11.91,0,0,0-3.31,1.83,12.72,12.72,0,0,0-2.58,2.79,11.73,11.73,0,0,0-1.61,3.5,9,9,0,0,0-.32,3.49,6,6,0,0,0,1.05,2.79,5.51,5.51,0,0,0,2.29,1.84,8,8,0,0,0,3.33.65,10.71,10.71,0,0,0,3.67-.65,11.77,11.77,0,0,0,3.3-1.84,12.34,12.34,0,0,0,2.6-2.79,11.7,11.7,0,0,0,1.62-3.49A9,9,0,0,0,420.2,119.57Zm-5,5.57a6.85,6.85,0,0,1-1.44,1.63,7,7,0,0,1-1.89,1.11,6,6,0,0,1-2.21.41,4.44,4.44,0,0,1-2-.41,3.24,3.24,0,0,1-1.28-1.11,3.5,3.5,0,0,1-.54-1.63,6,6,0,0,1,.22-2.07A7.73,7.73,0,0,1,407,121a7.26,7.26,0,0,1,1.44-1.63,6.93,6.93,0,0,1,1.9-1.1,5.83,5.83,0,0,1,2.21-.41,4.29,4.29,0,0,1,2,.41,3.14,3.14,0,0,1,1.28,1.1,3.36,3.36,0,0,1,.54,1.64,5.66,5.66,0,0,1-.22,2.07A7.4,7.4,0,0,1,415.22,125.14Z"/><path class="cls-2" d="M185,22.32h19.75c16.24,0,32.43,1.89,30.69,22.59-1.72,20.47-17.66,30.82-35.5,30.82H189.83l-7.93,28.7H162.15Zm9.13,37.88h5.31c7.85,0,15.23-3.06,16.05-12.82.66-7.88-4.09-9.53-9.39-9.53h-5.85Z"/><path class="cls-2" d="M243.2,16.2h19.33l-24,88.23H219.22Z"/><path class="cls-2" d="M301.78,88.43c-1.4,5.3-2.69,10.47-3.68,16H280.37l2.32-10h-.21c-6.09,6.81-12.21,11.41-22.3,11.41-11.15,0-16.43-9.18-15.42-21.18.34-4.12.86-6.47,2.57-12.94l7.5-28.59h19.75l-7.72,28.71a55.84,55.84,0,0,0-2.05,9.29c-.31,3.64,1.5,7.29,6.83,7.06,8.07,0,13.5-7.77,15.65-16.82l7.79-28.24h19.11Z"/><path class="cls-2" d="M305.11,89.4a34.29,34.29,0,0,0,12.51,2.33c3.09,0,10.76-.36,11.18-5.41.74-8.71-22.47-4.24-20.77-24.47,1.21-14.35,16.77-20.11,29.62-20.11a55.23,55.23,0,0,1,18.06,3.64l-7.34,12.93a32.79,32.79,0,0,0-12.86-2.46c-4.25,0-9,1.06-9.37,5.29-.57,6.82,23.36,6.35,22.07,21.77-1.28,15.17-13.49,22.7-27.84,22.94a77.11,77.11,0,0,1-23-3.18Z"/><path class="cls-2" d="M365.75,16.2h19.32l-24,88.23H341.76Z"/><path class="cls-2" d="M395.05,105.85c-20.5,0-27.72-12.59-26.42-28,1.81-21.53,17.05-36.11,38.71-36.11,18.8,0,27.77,12,26.47,27.4C431.66,94.67,415.75,105.85,395.05,105.85Zm10.09-49.3c-9.24,0-15.91,11.06-16.73,20.82-.69,8.24,2.78,13.77,9.27,13.65,8.92,0,15.23-8.23,16.4-22.11C414.61,62.56,412.57,56.55,405.14,56.55Z"/><path class="cls-2" d="M501.86,43.14h19.33l-16.62,61.29H488.86l10-50.21Zm7-25.52h19.33l-4.28,15.53H504.61Z"/><path class="cls-2" d="M512.06,89.4a34.25,34.25,0,0,0,12.51,2.33c3.08,0,10.76-.36,11.18-5.41.73-8.71-22.47-4.24-20.77-24.47,1.21-14.35,16.77-20.11,29.62-20.11a55.28,55.28,0,0,1,18.06,3.64l-7.34,12.93a32.88,32.88,0,0,0-12.87-2.46c-4.24,0-9,1.06-9.36,5.29-.57,6.82,23.36,6.35,22.06,21.77-1.27,15.17-13.48,22.7-27.83,22.94a77,77,0,0,1-23-3.18Z"/><path class="cls-2" d="M580,85.61c.25-2.94,1.25-6,2.48-10.59l4.73-17h12.11l5.38-14.83H591.57L597,24l-20.68,6-3.76,13.17H562.25l-4,14.83h10L563.5,75.14c-1.82,6.47-2.5,9.53-2.76,12.59-1.08,12.82,6.23,18.12,16,18.12A70,70,0,0,0,588,104.77l3.8-14a17.85,17.85,0,0,1-6.1,1.68C581.9,92.43,579.68,89.72,580,85.61Z"/><path class="cls-2" d="M604.66,43.14H624l-16.63,61.29h-15.7l11-54Zm7-25.52H631l-4.28,15.53H607.41Z"/><path class="cls-2" d="M655.32,103.49c-3.94,1.41-9.12,2.36-16.54,2.36-16.15,0-25.07-12.59-23.78-28,1.69-20.12,17.48-36.11,38.72-36.11a44.13,44.13,0,0,1,17.07,4.11l-5.38,14.7a25.73,25.73,0,0,0-12-3.29c-9.88,0-17.48,7.06-18.55,19.77-.61,7.29,4,13.29,12,13.29a28.56,28.56,0,0,0,12.55-2.71Z"/><path class="cls-2" d="M661.94,89.4a34.29,34.29,0,0,0,12.51,2.33c3.09,0,10.76-.36,11.18-5.41.74-8.71-22.47-4.24-20.77-24.47,1.21-14.35,16.77-20.11,29.62-20.11a55.23,55.23,0,0,1,18.06,3.64L705.2,58.31a32.79,32.79,0,0,0-12.86-2.46c-4.25,0-9,1.06-9.37,5.29C682.4,68,706.34,67.49,705,82.91c-1.28,15.17-13.49,22.7-27.84,22.94a77.11,77.11,0,0,1-23-3.18Z"/><path class="cls-2" d="M485.86,43.14l-3.38,11.18h-.21c-2.45-8.82-9.67-12.58-18.06-12.58-17.83,0-30.95,15.87-32.55,34.81-1.36,16.23,5.09,27.88,20.27,27.88,7.54,0,14.13-3.88,18.95-10.7l.2.23c-4.29,15.65-9.58,20.58-22.93,20.34h-24a8.63,8.63,0,0,1,1.1,1.16,8.27,8.27,0,0,1,1.47,3.83,11,11,0,0,1-.38,4.38,14.07,14.07,0,0,1-1.92,4.16,14.35,14.35,0,0,1-3.07,3.29c-.34.27-.71.48-1.07.72h25.19c22.94,0,34.52-8.47,41.4-32.23L502,43.14ZM476,69c-.67,8-5.86,19.18-15.63,19.18-6.05,0-9.57-4.94-9-11.29.72-8.59,5.84-18.94,15.4-18.94C473.47,58,476.59,62.56,476,69Z"/></svg>