<svg id="Layer_2" data-name="Layer 2" xmlns="http://www.w3.org/2000/svg" viewBox="0 0 800 800"><defs><style>.cls-1{fill:#fff;}.cls-2{fill:#606060;}.cls-3{fill:#e2001a;}</style></defs><path class="cls-1" d="M172.5,75A33.33,33.33,0,0,0,140,108.33v585a33.34,33.34,0,0,0,32.5,33.34h455a33.34,33.34,0,0,0,33.33-33.34V107.5A33.33,33.33,0,0,0,627.5,75H594.17V222l-64.34-65.17L465.17,222V75Z"/><path class="cls-2" d="M627.5,735H172.29a41.43,41.43,0,0,1-40.62-41.67v-585a41.42,41.42,0,0,1,40.62-41.66H465.17A8.33,8.33,0,0,1,473.5,75V201.77L523.92,151a8.34,8.34,0,0,1,5.91-2.46h0a8.32,8.32,0,0,1,5.92,2.48l50.07,50.72V75a8.33,8.33,0,0,1,8.34-8.33h33.34a41.42,41.42,0,0,1,41.65,40.62,1.48,1.48,0,0,1,0,.21V693.33A41.72,41.72,0,0,1,627.5,735ZM172.61,718.33H627.5a25,25,0,0,0,25-25V107.61a24.86,24.86,0,0,0-25-24.28h-25V222a8.33,8.33,0,0,1-14.26,5.85l-58.42-59.17-58.74,59.19A8.33,8.33,0,0,1,456.83,222V83.33H172.61a24.87,24.87,0,0,0-24.28,25v585A24.86,24.86,0,0,0,172.61,718.33Z"/><path class="cls-3" d="M546.83,326.61h-277a8.34,8.34,0,0,1,0-16.67h277a8.34,8.34,0,1,1,0,16.67Z"/><path class="cls-2" d="M432.17,423.78H269.83a8.34,8.34,0,0,1,0-16.67H432.17a8.34,8.34,0,0,1,0,16.67Z"/><path class="cls-2" d="M481.33,521.28H269.83a8.34,8.34,0,0,1,0-16.67h211.5a8.34,8.34,0,1,1,0,16.67Z"/><path class="cls-2" d="M481.33,601.33H269.83a8.34,8.34,0,0,1,0-16.67h211.5a8.34,8.34,0,1,1,0,16.67Z"/></svg>