<svg xmlns="http://www.w3.org/2000/svg" viewBox="0 0 455.72 266.04"><defs><style>.cls-1{fill:#343534;}.cls-2{fill:#de001b;}</style></defs><g id="Layer_2" data-name="Layer 2"><g id="Capa_1" data-name="Capa 1"><path class="cls-1" d="M109.27,14.25,97,39.65C83.5,31.8,66.51,26.31,56.1,26.31,47.69,26.31,42,29.42,42,35.63c0,22.11,67.6,9.5,67.6,55.73,0,25.58-22.65,39.1-51.16,39.1-21.38,0-43.3-8-58.47-20.46L12.61,85c13.16,11.51,32.89,19.18,46.23,19.18,10.23,0,16.62-3.83,16.62-11.15,0-22.65-67.6-9.13-67.6-54.44C7.86,15,28.14,0,58.84,0,77.29,0,96.11,5.67,109.27,14.25Z"/><path class="cls-1" d="M127.35,129.37V1.46h32.53V129.37Z"/><path class="cls-1" d="M285,14.25l-12.25,25.4c-13.52-7.85-30.51-13.34-40.93-13.34-8.4,0-14.07,3.11-14.07,9.32,0,22.11,67.61,9.5,67.61,55.73,0,25.58-22.66,39.1-51.16,39.1-21.38,0-43.31-8-58.47-20.46l12.6-25c13.16,11.51,32.9,19.18,46.23,19.18,10.23,0,16.63-3.83,16.63-11.15,0-22.65-67.61-9.13-67.61-54.44C183.62,15,203.91,0,234.6,0,253.06,0,271.88,5.67,285,14.25Z"/><path class="cls-1" d="M119.86,157.14,101,179.43c-8.4-10.23-20.83-16.63-32.16-16.63-20.28,0-35.63,16.08-35.63,37.1,0,21.37,15.35,37.64,35.63,37.64,10.79,0,23.21-5.85,32.16-15l19,20.1C106.34,256.72,86.06,266,67.24,266,28.69,266,0,237.72,0,200.26c0-36.91,29.42-64.68,68.34-64.68C87.34,135.58,107.07,144,119.86,157.14Z"/><path class="cls-1" d="M162.61,241l-9.31,23.57H119.86L175,136.67h33.44l53.9,127.91H227.66L218.53,241Zm28.14-72-18.63,47.32H209Z"/><path class="cls-1" d="M361,237.35v27.23H274.25V136.67h32.52V237.35Z"/><path class="cls-2" d="M370.39,112.05a107,107,0,0,1-1.92-18.54,105.33,105.33,0,0,0-51.94,30.83l48.89,48.89a20.64,20.64,0,0,0,29.19,0l5.61-5.61A105.37,105.37,0,0,1,370.39,112.05Z"/><path class="cls-2" d="M443.76,79.61,405.6,41.44A106.34,106.34,0,0,0,391.5,71.9,105.2,105.2,0,0,1,443.76,79.61Z"/><path class="cls-2" d="M369.62,76.57a106,106,0,0,1,21-49.2,20.63,20.63,0,0,0-25.21,3.08l-56.79,56.8a20.63,20.63,0,0,0,0,29.18l4.45,4.45A105.57,105.57,0,0,1,369.62,76.57Z"/><path class="cls-2" d="M388,90.54a105.61,105.61,0,0,0,18.65,70.63l44.74-44.74a20.47,20.47,0,0,0,4.31-6.36A105.47,105.47,0,0,0,388,90.54Z"/></g></g></svg>