<svg xmlns="http://www.w3.org/2000/svg" viewBox="0 0 25 25"><defs><style>.cls-1{fill:#fff;}.cls-2{fill:#606060;}</style></defs><g id="Layer_2" data-name="Layer 2"><g id="Layer_1-2" data-name="Layer 1"><rect class="cls-1" width="25" height="25"/><path id="Page-1" class="cls-2" d="M12.5,12a1.41,1.41,0,1,1,1.41-1.41A1.41,1.41,0,0,1,12.5,12Zm0-3.75a2.35,2.35,0,1,0,2.34,2.34A2.34,2.34,0,0,0,12.5,8.28Zm0,10.31c-.78,0-4.69-6-4.69-8a4.69,4.69,0,0,1,9.38,0c0,1.94-3.92,8-4.69,8ZM12.5,5a5.62,5.62,0,0,0-5.62,5.62C6.88,13,11.56,20,12.5,20s5.62-7,5.62-9.38A5.62,5.62,0,0,0,12.5,5Z"/></g></g></svg>