<svg xmlns="http://www.w3.org/2000/svg" viewBox="0 0 20.35 25"><defs><style>.cls-1{fill:#3d3d3f;}.cls-2{fill:#606060;fill-rule:evenodd;}</style></defs><g id="Layer_2" data-name="Layer 2"><g id="Layer_1-2" data-name="Layer 1"><path class="cls-1" d="M10.17,0A5.53,5.53,0,1,0,15.7,5.52,5.52,5.52,0,0,0,10.17,0ZM6.4,5.52A3.78,3.78,0,1,1,10.17,9.3,3.78,3.78,0,0,1,6.4,5.52Z"/><path class="cls-1" d="M10.17,12.79a14.46,14.46,0,0,0-7,1.65C1.36,15.45,0,17,0,18.9V19c0,1.35,0,3,1.48,4.26a7.15,7.15,0,0,0,3.14,1.3,28.84,28.84,0,0,0,5.55.43,28.88,28.88,0,0,0,5.56-.43,7.05,7.05,0,0,0,3.13-1.3c1.49-1.21,1.49-2.91,1.49-4.26V18.9c0-1.9-1.36-3.45-3.17-4.46A14.5,14.5,0,0,0,10.17,12.79ZM1.74,18.9c0-1,.73-2.07,2.28-2.94a12.73,12.73,0,0,1,6.15-1.43A12.7,12.7,0,0,1,16.32,16c1.56.87,2.28,1.95,2.28,2.94,0,1.52,0,2.37-.84,3a5.48,5.48,0,0,1-2.38.94,26.93,26.93,0,0,1-5.21.4,26.88,26.88,0,0,1-5.2-.4,5.48,5.48,0,0,1-2.38-.94C1.79,21.27,1.74,20.42,1.74,18.9Z"/><path class="cls-2" d="M10.17,0A5.53,5.53,0,1,0,15.7,5.52,5.52,5.52,0,0,0,10.17,0ZM6.4,5.52A3.78,3.78,0,1,1,10.17,9.3,3.78,3.78,0,0,1,6.4,5.52Z"/><path class="cls-2" d="M10.17,12.79a14.46,14.46,0,0,0-7,1.65C1.36,15.45,0,17,0,18.9V19c0,1.35,0,3,1.48,4.26a7.15,7.15,0,0,0,3.14,1.3,28.84,28.84,0,0,0,5.55.43,28.88,28.88,0,0,0,5.56-.43,7.05,7.05,0,0,0,3.13-1.3c1.49-1.21,1.49-2.91,1.49-4.26V18.9c0-1.9-1.36-3.45-3.17-4.46A14.5,14.5,0,0,0,10.17,12.79ZM1.74,18.9c0-1,.73-2.07,2.28-2.94a12.73,12.73,0,0,1,6.15-1.43A12.7,12.7,0,0,1,16.32,16c1.56.87,2.28,1.95,2.28,2.94,0,1.52,0,2.37-.84,3a5.48,5.48,0,0,1-2.38.94,26.93,26.93,0,0,1-5.21.4,26.88,26.88,0,0,1-5.2-.4,5.48,5.48,0,0,1-2.38-.94C1.79,21.27,1.74,20.42,1.74,18.9Z"/></g></g></svg>