<svg xmlns="http://www.w3.org/2000/svg" viewBox="0 0 39.01 35.63"><defs><style>.cls-1{fill:#dd001b;}.cls-2{fill:#4d4d4d;stroke:#fff;stroke-linecap:round;stroke-linejoin:round;}</style></defs><g id="Layer_2" data-name="Layer 2"><g id="Layer_1-2" data-name="Layer 1"><path class="cls-1" d="M18.65,8.53a10.21,10.21,0,0,1-.19-1.81,10.24,10.24,0,0,0-5.05,3l4.76,4.76a2,2,0,0,0,2.84,0l.54-.55A10.27,10.27,0,0,1,18.65,8.53Z"/><path class="cls-1" d="M25.79,5.37,22.08,1.66a10.26,10.26,0,0,0-1.38,3A10.25,10.25,0,0,1,25.79,5.37Z"/><path class="cls-1" d="M18.58,5.07a10.24,10.24,0,0,1,2-4.78,2,2,0,0,0-2.45.3L12.64,6.11a2,2,0,0,0,0,2.84l.43.44A10.28,10.28,0,0,1,18.58,5.07Z"/><path class="cls-1" d="M20.37,6.43a10.27,10.27,0,0,0,.14,2.92,10.16,10.16,0,0,0,1.67,4L26.53,9A1.71,1.71,0,0,0,27,8.33,10.3,10.3,0,0,0,20.37,6.43Z"/><path class="cls-2" d="M36.11,20.13a5.26,5.26,0,0,0-2.06-.41,5.39,5.39,0,0,0-2.27.5h0l-6.4,2.87a3.79,3.79,0,0,0-3.7-2.94H16.87L11,18.43a1.56,1.56,0,0,0-.44-.07H8.48V18a1.56,1.56,0,0,0-1.56-1.56H2.06A1.56,1.56,0,0,0,.5,18h0V33.3a1.56,1.56,0,0,0,1.56,1.56H6.92A1.56,1.56,0,0,0,8.48,33.3v-.55a29.57,29.57,0,0,1,5.41,1.6l-.2-.07a15.23,15.23,0,0,0,5.07.85A15.55,15.55,0,0,0,24.68,34l-.11,0a27.52,27.52,0,0,0,4.22-2.3l-.1.07L29.94,31c2.06-1.22,3.72-2.29,5.21-3.37a21.44,21.44,0,0,0,2-1.61h0a4.48,4.48,0,0,0,1.24-1.62v0a1.47,1.47,0,0,0,.11-.56,1.86,1.86,0,0,0,0-.34h0a4.57,4.57,0,0,0-2.33-3.35ZM5.35,31.74H3.63V19.6H5.35Zm29.63-8a18.85,18.85,0,0,1-1.61,1.28l0,0c-1.42,1-3,2-5,3.21l-1.31.8A25.68,25.68,0,0,1,23.55,31l-.16.07a12.48,12.48,0,0,1-8.69.21l.09,0a28.42,28.42,0,0,0-6.14-1.74l-.17,0v-8.1h1.86L16.2,23.2a1.56,1.56,0,0,0,.44.07h4.87c.55,0,.87.21.87.58s-.32.59-.87.59H13a1.56,1.56,0,0,0,0,3.12h9.73a1.58,1.58,0,0,0,.65-.14h0l9.75-4.38a2.39,2.39,0,0,1,1.63-.12h0a1.18,1.18,0,0,1,.5.6h0l-.25.24Z"/></g></g></svg>