<svg xmlns="http://www.w3.org/2000/svg" viewBox="0 0 17.79 27"><defs><style>.cls-1{fill:#4d4d4d;}</style></defs><g id="Layer_2" data-name="Layer 2"><g id="Layer_1-2" data-name="Layer 1"><path class="cls-1" d="M17.79,8.9a10.9,10.9,0,0,1-2.65,6.7,5.26,5.26,0,0,0-1.08,1.84v1.91a1.75,1.75,0,0,1-1.75,1.75H5.48a1.75,1.75,0,0,1-1.75-1.75V17.44A5.26,5.26,0,0,0,2.65,15.6,10.9,10.9,0,0,1,0,8.9,8.89,8.89,0,0,1,17.09,5.44a8.74,8.74,0,0,1,.7,3.46ZM16,8.9a7.15,7.15,0,1,0-14.29,0c0,4.35,3.73,6.27,3.73,8.54v1.91h6.83V17.44c0-2.27,3.73-4.19,3.73-8.54ZM13.19,23.15a.87.87,0,0,1-.88.88H5.48a.88.88,0,1,1,0-1.75h6.83A.88.88,0,0,1,13.19,23.15ZM12,25.48a.44.44,0,0,1-.15.49,4.94,4.94,0,0,1-6,0,.45.45,0,0,1-.08-.62.49.49,0,0,1,.35-.17h5.5a.44.44,0,0,1,.41.3Z"/></g></g></svg>